<svg width="375" height="183" viewBox="0 0 375 183" fill="none" xmlns="http://www.w3.org/2000/svg">
<path d="M-806.93 216.11C-802.088 252.87 -743.362 281.91 -671.581 281.91C-657.642 281.91 -644.199 280.817 -631.54 278.777C-620.563 284.804 -607.961 288.23 -594.557 288.23C-582.857 288.23 -571.773 285.617 -561.842 280.95C-561.857 281.537 -561.889 282.137 -561.889 282.737C-561.889 322.23 -528.892 354.257 -488.189 354.257C-455.284 354.257 -427.425 333.324 -417.954 304.43C-393.826 320.124 -365.059 329.257 -334.139 329.257C-328.476 329.257 -322.891 328.937 -317.385 328.337C-310.567 366.59 -277.157 395.644 -236.94 395.644C-203.796 395.644 -175.28 375.91 -162.451 347.55C-153.636 351.844 -143.809 354.257 -133.439 354.257C-95.5199 354.257 -64.7812 322.23 -64.7812 282.737C-64.7812 278.897 -65.0786 275.137 -65.6359 271.47C-65.3506 271.47 -65.0679 271.484 -64.7812 271.484C-45.5812 271.484 -27.7105 265.844 -12.6919 256.164C0.429468 263.337 15.4841 267.431 31.4948 267.431C75.1228 267.431 111.648 237.11 121.231 196.417C144.623 196.284 163.532 182.404 163.532 165.297C163.532 164.564 163.484 163.831 163.413 163.097C239.621 151.084 289.397 131.271 289.397 108.844C289.397 72.2038 156.383 42.4838 -7.69852 42.4838C-62.8239 42.4838 -114.429 45.8438 -158.674 51.6838C-168.728 31.3504 -189.669 17.3637 -213.887 17.3637C-232.891 17.3637 -249.879 25.9905 -261.172 39.5105C-282.892 27.8171 -307.737 21.1637 -334.139 21.1637C-382.197 21.1637 -425.106 43.1771 -453.358 77.6571C-492.818 74.7104 -535.285 73.1104 -579.542 73.1104C-788 73.1104 -956.986 108.71 -956.986 152.63C-956.986 178.564 -898.08 201.59 -806.93 216.11Z" fill="#E9F6FC"/>
<path d="M-957 152.63C-957 108.71 -788 73.1104 -579.537 73.1104C-535.284 73.1104 -492.811 74.7104 -453.363 77.6571C-425.101 43.1771 -382.207 21.1637 -334.139 21.1637C-307.731 21.1637 -282.899 27.8171 -261.167 39.5105C-249.888 25.9771 -232.886 17.3637 -213.888 17.3637C-189.661 17.3637 -168.736 31.3504 -158.668 51.6971C-114.433 45.8437 -62.8265 42.4838 -7.69852 42.4838C156.383 42.4838 289.397 72.1905 289.397 108.857C289.397 109.004 289.397 109.151 289.379 109.297C253.287 102.271 210.025 98.1772 163.535 98.1772C96.5055 98.1772 36.2241 106.67 -5.55321 120.204C-18.0785 112.444 -32.8425 107.977 -48.6692 107.977C-81.1665 107.977 -109.263 126.87 -122.576 154.27C-122.576 153.897 -122.54 153.55 -122.54 153.204C-122.54 107.63 -159.493 70.6704 -205.067 70.6704C-232.997 70.6704 -257.664 84.5771 -272.592 105.79C-291.829 77.0037 -324.62 58.0171 -361.868 58.0171C-405.204 58.0171 -442.524 83.7505 -459.451 120.764C-466.529 105.924 -481.66 95.6703 -499.192 95.6703C-523.052 95.6703 -542.473 114.67 -543.169 138.364C-586.909 119.644 -648.492 107.977 -716.714 107.977C-821.469 107.977 -910.573 135.47 -943.467 173.817C-952.28 167.07 -957 159.964 -957 152.63Z" fill="#E9F6FC"/>
<path d="M-943.466 173.817C-910.573 135.47 -821.469 107.977 -716.714 107.977C-648.492 107.977 -586.909 119.644 -543.169 138.364C-542.473 114.67 -523.052 95.6703 -499.192 95.6703C-481.66 95.6703 -466.529 105.924 -459.451 120.764C-442.524 83.7504 -405.204 58.017 -361.868 58.017C-324.62 58.017 -291.829 77.0037 -272.592 105.79C-257.664 84.577 -232.997 70.6703 -205.066 70.6703C-159.493 70.6703 -122.54 107.63 -122.54 153.204C-122.54 153.55 -122.576 153.897 -122.576 154.27C-109.262 126.87 -81.1664 107.977 -48.6691 107.977C-32.8424 107.977 -18.0785 112.444 -5.55315 120.204C36.2242 106.67 96.5056 98.1771 163.535 98.1771C210.026 98.1771 253.287 102.27 289.379 109.297C288.738 131.524 239.13 151.164 163.407 163.11C163.48 163.844 163.535 164.577 163.535 165.31C163.535 182.417 144.627 196.284 121.227 196.404C118.311 208.844 112.863 220.31 105.472 230.23C88.6736 252.804 61.8069 267.417 31.4922 267.417C18.4349 267.417 6.01889 264.697 -5.24111 259.804C-7.77178 258.71 -10.2665 257.484 -12.6878 256.164C-26.6065 265.124 -42.9838 270.644 -60.5892 271.377C-61.9838 271.457 -63.3772 271.484 -64.7892 271.484C-65.0638 271.484 -65.3572 271.47 -65.6332 271.47C-65.0825 275.137 -64.7892 278.897 -64.7892 282.737C-64.7892 322.23 -95.5265 354.257 -133.433 354.257C-137.321 354.257 -141.117 353.924 -144.804 353.27C-144.804 353.27 -144.822 353.284 -144.84 353.27C-151.038 352.177 -156.944 350.244 -162.446 347.564C-163.454 349.777 -164.554 351.937 -165.746 354.03C-179.777 378.884 -206.387 395.644 -236.94 395.644C-277.159 395.644 -310.573 366.59 -317.395 328.337C-322.897 328.924 -328.472 329.257 -334.139 329.257C-365.059 329.257 -393.833 320.124 -417.949 304.444C-427.43 333.324 -455.288 354.257 -488.189 354.257C-519.072 354.257 -545.536 335.804 -556.484 309.63C-559.987 301.324 -561.895 292.244 -561.895 282.737C-561.895 282.124 -561.857 281.537 -561.84 280.95C-571.779 285.604 -582.856 288.23 -594.557 288.23C-607.962 288.23 -620.561 284.804 -631.546 278.79C-644.201 280.83 -657.644 281.91 -671.581 281.91C-743.361 281.91 -802.084 252.87 -806.925 216.124C-872.306 205.71 -921.093 190.91 -943.466 173.817Z" fill="#E9F6FC"/>
<path d="M-933.466 173.817C-927.279 166.63 -919.133 159.804 -909.293 153.47C-891.759 159.524 -871.346 163.017 -849.559 163.017C-824.654 163.017 -769.874 162.07 -761.97 167.044C-772.681 176.724 -778.953 188.484 -778.953 201.164C-778.953 234.39 -735.837 261.324 -682.671 261.324C-629.506 261.324 -586.39 234.39 -586.39 201.164C-586.39 197.23 -586.995 193.404 -588.15 189.697C-574.891 186.684 -520.901 248.43 -483.506 255.07C-488.733 261.977 -491.814 270.55 -491.814 279.857C-491.814 302.577 -473.402 320.99 -450.679 320.99C-427.957 320.99 -409.545 302.577 -409.545 279.857C-409.545 265.47 -416.917 252.844 -428.085 245.484C-421.226 241.564 -414.991 236.684 -409.562 231.03C-390.214 245.097 -366.41 253.39 -340.643 253.39C-335.967 253.39 -331.345 253.11 -326.815 252.577C-314.106 263.577 -293.493 272.19 -268.662 276.604C-275.319 285.817 -279.243 297.124 -279.243 309.364C-279.243 340.284 -254.191 365.337 -223.271 365.337C-192.351 365.337 -167.301 340.284 -167.301 309.364C-167.301 308.977 -167.301 308.59 -167.319 308.204C-128.293 301.657 -98.5647 267.71 -98.5647 226.83C-98.5647 213.684 -101.646 201.23 -107.129 190.19C-103.443 190.737 -99.6647 191.03 -95.814 191.03C-65.6274 191.031 -39.53 173.244 -27.2433 147.457C-15.3047 163.324 5.38197 173.817 28.894 173.817C54.9713 173.817 77.5473 160.924 88.606 142.11C113.291 146.43 140.929 148.857 170.106 148.857C205.318 148.857 238.31 145.337 266.571 139.19C244.527 148.75 212.433 156.937 173.407 163.11C173.481 163.844 173.535 164.577 173.535 165.31C173.535 182.417 154.627 196.284 131.227 196.404C128.311 208.844 122.863 220.311 115.473 230.231C98.674 252.804 71.8073 267.417 41.4926 267.417C28.4353 267.417 16.0193 264.697 4.7593 259.804C2.22863 258.71 -0.266047 257.484 -2.68738 256.164C-16.606 265.124 -32.9834 270.644 -50.5887 271.377C-51.9834 271.457 -53.3767 271.484 -54.7887 271.484C-55.0634 271.484 -55.3567 271.47 -55.6327 271.47C-55.0821 275.137 -54.7887 278.897 -54.7887 282.737C-54.7887 322.23 -85.5261 354.257 -123.433 354.257C-127.321 354.257 -131.117 353.924 -134.803 353.27C-134.803 353.27 -134.822 353.284 -134.839 353.27C-141.038 352.177 -146.943 350.244 -152.446 347.564C-153.454 349.777 -154.554 351.937 -155.746 354.03C-169.777 378.884 -196.386 395.644 -226.939 395.644C-267.158 395.644 -300.573 366.59 -307.394 328.337C-312.897 328.924 -318.471 329.257 -324.138 329.257C-355.058 329.257 -383.833 320.124 -407.949 304.444C-417.43 333.324 -445.287 354.257 -478.189 354.257C-509.071 354.257 -535.535 335.804 -546.483 309.63C-549.986 301.324 -551.894 292.244 -551.894 282.737C-551.894 282.124 -551.857 281.537 -551.839 280.95C-561.778 285.604 -572.855 288.23 -584.557 288.23C-597.962 288.23 -610.561 284.804 -621.546 278.79C-634.201 280.83 -647.643 281.91 -661.581 281.91C-733.361 281.91 -792.083 252.87 -796.925 216.124C-862.306 205.71 -911.093 190.91 -933.466 173.817Z" fill="white"/>
<path d="M-919.293 153.47C-893.306 136.817 -855.426 123.577 -810.574 115.79C-789.778 112.164 -767.46 109.697 -744.132 108.617C-735.145 108.19 -725.994 107.977 -716.714 107.977C-652.857 107.977 -594.832 118.19 -551.789 134.857C-548.854 136.004 -545.976 137.177 -543.169 138.364C-542.858 127.91 -538.914 118.39 -532.552 111.004C-526.353 103.777 -517.861 98.6036 -508.197 96.6036C-506.766 96.2969 -505.3 96.0703 -503.832 95.9237C-502.31 95.737 -500.75 95.6703 -499.192 95.6703C-485.64 95.6703 -473.517 101.79 -465.429 111.457C-463.064 114.284 -461.046 117.404 -459.45 120.764C-455.765 112.684 -451.106 105.164 -445.641 98.3237C-425.981 73.7503 -395.758 58.017 -361.868 58.017C-324.62 58.017 -291.829 77.0037 -272.592 105.79C-265.733 96.057 -256.82 87.8571 -246.494 81.8437C-234.317 74.7504 -220.178 70.6703 -205.066 70.6703C-193.586 70.6703 -182.656 73.017 -172.716 77.257C-143.226 89.8437 -122.54 119.11 -122.54 153.204C-122.54 153.55 -122.576 153.897 -122.576 154.27C-109.262 126.87 -81.1664 107.977 -48.6691 107.977C-48.2464 107.977 -47.8251 107.977 -47.4211 107.99C-41.3517 108.07 -35.4651 108.817 -29.7984 110.177C-21.1051 112.217 -12.9438 115.644 -5.55311 120.204C-3.04111 119.404 -0.473092 118.59 2.16824 117.83C25.1282 111.07 52.9669 105.75 83.9976 102.377C108.756 99.6704 135.568 98.1771 163.535 98.1771C210.026 98.1771 253.287 102.27 289.379 109.297C289.086 120.057 277.258 130.217 256.588 139.19C256.588 139.19 256.588 139.19 256.571 139.19C228.31 145.337 195.318 148.857 160.106 148.857C130.928 148.857 103.291 146.43 78.6056 142.11C67.5469 160.924 44.9709 173.817 18.8936 173.817C-4.61842 173.817 -25.3051 163.324 -37.2437 147.457C-49.5304 173.244 -75.6278 191.03 -105.814 191.03C-109.665 191.03 -113.444 190.737 -117.129 190.19C-111.646 201.23 -108.565 213.684 -108.565 226.83C-108.565 267.71 -138.293 301.657 -177.32 308.204C-177.301 308.59 -177.301 308.977 -177.301 309.364C-177.301 340.284 -202.352 365.337 -233.272 365.337C-264.192 365.337 -289.244 340.284 -289.244 309.364C-289.244 297.124 -285.32 285.817 -278.662 276.604C-303.493 272.19 -324.106 263.577 -336.816 252.577C-341.345 253.11 -345.968 253.39 -350.644 253.39C-376.41 253.39 -400.214 245.097 -419.562 231.03C-424.992 236.684 -431.226 241.564 -438.085 245.484C-426.917 252.844 -419.545 265.47 -419.545 279.857C-419.545 302.577 -437.957 320.99 -460.68 320.99C-483.402 320.99 -501.814 302.577 -501.814 279.857C-501.814 270.55 -498.733 261.977 -493.506 255.07C-530.901 248.43 -571.326 240.55 -598.15 189.697C-596.996 193.404 -596.39 197.23 -596.39 201.164C-596.39 234.39 -639.506 261.324 -692.672 261.324C-745.837 261.324 -788.953 234.39 -788.953 201.164C-788.953 188.484 -782.681 176.724 -771.97 167.044C-814.628 190.417 -834.654 163.017 -859.56 163.017C-881.346 163.017 -901.76 159.524 -919.293 153.47Z" fill="#E9F6FC"/>
<path d="M-115.901 90.7773C-115.901 90.7773 -63.9347 43.7106 28.3706 74.884C28.3706 74.884 -58.4374 23.5373 -115.901 90.7773Z" fill="#E9F6FC"/>
<path d="M28.3706 132.351C28.3706 132.351 2.38792 95.0841 -57.2147 125.631C-57.2147 125.631 4.68394 108.657 28.3706 132.351Z" fill="#B5D7F7"/>
<path d="M115.087 111.888C114.557 111.726 114.02 111.571 113.477 111.429C113.244 110.744 112.989 110.067 112.721 109.396C113.477 110.257 114.268 111.09 115.087 111.888ZM136.696 126.718C135.418 125.094 134.034 123.569 132.544 122.149C134.231 122.658 135.962 123.053 137.727 123.35C137.353 124.459 137.014 125.581 136.696 126.718ZM58.0761 180.241C60.8867 180.241 63.655 180.05 66.3598 179.697C69.3822 183.891 73.1109 187.543 77.3904 190.452C76.1757 194.498 75.5119 198.792 75.5119 203.241C75.5119 227.703 95.3416 247.533 119.804 247.533C144.259 247.533 164.089 227.703 164.089 203.241C164.089 201.695 164.011 200.176 163.856 198.672C173.891 205.254 185.84 209.138 198.692 209.307C197.386 212.527 196.673 215.889 196.673 219.342C196.673 239.158 219.447 255.824 250.364 260.725C267.934 291.416 305.765 312.644 349.598 312.644C410.189 312.644 459.304 272.087 459.304 222.054C459.304 205.932 454.191 190.791 445.251 177.677C448.655 176.074 451.889 174.167 454.933 172.021C461.988 174.076 469.445 175.198 477.164 175.198C486.733 175.198 495.899 173.503 504.394 170.403C504.387 170.629 504.373 170.848 504.373 171.074C504.373 212.45 537.917 245.987 579.286 245.987C620.661 245.987 654.205 212.45 654.205 171.074C654.205 155.249 649.283 140.574 640.908 128.484C668.993 126.146 690.397 114.099 690.397 99.5797C690.397 83.3868 663.781 70.2587 630.958 70.2587C620.054 70.2587 609.85 71.7135 601.072 74.2416C597.632 48.3951 575.515 28.4453 548.729 28.4453C540.693 28.4453 533.08 30.2461 526.258 33.4592C512.749 22.8028 495.708 16.433 477.164 16.433C457.821 16.433 440.096 23.3607 426.325 34.8574C414.984 14.0884 392.944 -2.60042e-05 367.613 -2.82187e-05C345.099 -3.01869e-05 325.192 11.1436 313.081 28.2122C297.481 20.8255 277.99 16.433 256.847 16.433C219.857 16.433 187.93 29.8576 173.037 49.2778C165.509 42.6326 155.629 38.5932 144.803 38.5932C121.231 38.5932 102.128 57.7026 102.128 81.2682C102.128 86.3739 103.025 91.2607 104.663 95.7945C94.0705 82.8853 77.1503 74.524 58.0761 74.524C25.9869 74.524 -0.0291502 98.1884 -0.0291528 127.382C-0.0291554 156.576 25.9869 180.241 58.0761 180.241Z" fill="#E9F6FC"/>
<path d="M132.543 122.149C134.224 122.658 135.954 123.053 137.72 123.35C137.353 124.466 137.014 125.581 136.703 126.718C135.418 125.094 134.033 123.569 132.543 122.149Z" fill="#E9F6FC"/>
<path d="M112.721 109.396C113.477 110.264 114.268 111.091 115.094 111.889C114.557 111.719 114.02 111.578 113.477 111.43C113.236 110.752 112.989 110.067 112.721 109.396Z" fill="#E9F6FC"/>
<path d="M90.9492 171.618C83.8167 163.221 79.3748 152.791 78.0895 141.93C66.9388 149.684 54.6864 151.76 40.8592 151.76C27.0249 151.76 12.1738 142.445 3.53711 132.276C2.26597 130.779 1.07968 129.211 -0.0219724 127.594C0.105139 156.689 26.0646 180.241 58.0761 180.241C60.8867 180.241 63.6551 180.05 66.3598 179.697C69.3822 183.892 73.1109 187.543 77.3904 190.452C76.1757 194.499 75.5119 198.792 75.5119 203.241C75.5119 227.704 95.3417 247.533 119.804 247.533C144.259 247.533 164.089 227.704 164.089 203.241C164.089 201.695 164.011 200.176 163.856 198.672C173.891 205.254 185.84 209.138 198.692 209.307C197.386 212.528 196.673 215.889 196.673 219.342C196.673 239.158 219.447 255.824 250.364 260.725C267.934 291.416 305.765 312.644 349.598 312.644C410.189 312.644 459.304 272.088 459.304 222.054C459.304 205.932 454.191 190.791 445.251 177.677C448.655 176.074 451.889 174.167 454.933 172.021C461.988 174.076 469.445 175.198 477.164 175.198C486.733 175.198 495.899 173.504 504.394 170.403C504.387 170.629 504.373 170.848 504.373 171.074C504.373 212.45 537.917 245.987 579.286 245.987C620.661 245.987 654.205 212.45 654.205 171.074C654.205 155.249 649.283 140.574 640.908 128.484C667.008 126.309 687.326 115.752 690.066 102.616C690.073 102.616 690.073 102.616 690.08 102.616C690.087 102.574 690.087 102.532 690.101 102.482C690.157 102.172 690.207 101.861 690.249 101.55C690.27 101.366 690.306 101.183 690.32 100.999C690.355 100.674 690.362 100.342 690.376 100.018C690.376 99.8693 690.397 99.7281 690.397 99.5798C690.397 97.5601 689.974 95.5898 689.183 93.6831C682.121 99.0219 673.858 102.567 664.812 104.523C650.618 107.588 635.618 108.965 620.916 108.626C630.301 119.953 634.884 134.84 633.507 149.5C632.144 163.914 625.054 177.451 614.03 186.822C601.778 197.232 588.198 199.837 572.633 199.837C558.799 199.837 543.948 190.523 535.311 180.361C525.63 168.97 520.891 153.843 522.296 138.964C523.024 131.231 525.418 123.76 529.168 117.044C527.854 117.291 526.555 117.517 525.284 117.686C511.887 119.515 497.792 119.657 484.438 117.164C474.254 115.257 464.241 112.891 454.389 109.996C451.12 119.388 445.378 127.884 437.744 134.374C430.923 140.171 423.684 143.54 415.923 145.397C419.193 152.487 421.763 159.945 423.84 167.621C433.013 201.596 418.981 239.462 393.311 262.406C365.085 287.638 322.876 293.429 287.594 281.678C253.387 270.287 231.502 239.942 224.15 205.713C222.081 196.073 221.17 186.038 221.184 175.954C217.526 176.364 213.755 176.526 209.857 176.526C199.815 176.526 189.244 171.604 180.889 165.022C177.853 169.895 174.082 174.33 169.668 178.08C157.423 188.489 143.843 191.095 128.271 191.095C114.444 191.095 99.5859 181.78 90.9492 171.618Z" fill="white"/>
<path d="M275.378 245.323C275.378 245.323 274.848 159.853 347.96 137.509C347.96 137.509 253.041 145.277 275.378 245.323Z" fill="#B5D7F7"/>
<path d="M287.524 176.364C287.524 176.364 241.586 178.461 238.472 207.443C238.472 207.443 234.1 173.934 293.837 166.166L287.524 176.364Z" fill="#B5D7F7"/>
<path d="M57.5678 136.52C57.5678 136.52 94.2826 75.534 170.24 131.238C170.24 131.238 106.782 95.731 57.5678 136.52Z" fill="#B5D7F7"/>
<path d="M331.068 44.5889C331.068 44.5889 345.312 14.1522 398.417 25.8043C398.417 25.8043 336.894 -9.15912 331.068 44.5889Z" fill="#E9F6FC"/>
</svg>
