<svg width="25" height="25" viewBox="0 0 25 25" fill="none" xmlns="http://www.w3.org/2000/svg">
<path fill-rule="evenodd" clip-rule="evenodd" d="M0.732 0.731176C1.7085 -0.243725 3.2915 -0.243725 4.268 0.731176L12.5 8.96551L20.732 0.731176C21.7085 -0.243725 23.2915 -0.243725 24.268 0.731176C25.244 1.71108 25.244 3.29095 24.268 4.27086L16.0355 12.5L24.268 20.7291C25.244 21.709 25.244 23.2889 24.268 24.2688C23.2915 25.2437 21.7085 25.2437 20.732 24.2688L12.5 16.0345L4.268 24.2688C3.2915 25.2437 1.7085 25.2437 0.732 24.2688C-0.244 23.2889 -0.244 21.709 0.732 20.7291L8.9645 12.5L0.732 4.27086C-0.244 3.29095 -0.244 1.71108 0.732 0.731176Z" fill="white"/>
</svg>
