<svg width="252" height="77" viewBox="0 0 252 77" fill="none" xmlns="http://www.w3.org/2000/svg">
<path d="M221.309 36.2413C220.332 28.8208 208.477 22.9587 193.987 22.9587C191.173 22.9587 188.459 23.1794 185.904 23.5912C183.688 22.3746 181.144 21.6829 178.439 21.6829C176.077 21.6829 173.839 22.2105 171.835 23.1525C171.838 23.0341 171.844 22.9129 171.844 22.7918C171.844 14.8195 165.183 8.35451 156.967 8.35451C150.324 8.35451 144.701 12.5802 142.789 18.4127C137.918 15.2448 132.111 13.4011 125.869 13.4011C124.726 13.4011 123.599 13.4657 122.488 13.5868C121.111 5.86486 114.367 2.16479e-05 106.249 2.16479e-05C99.5579 2.16479e-05 93.8016 3.9835 91.2118 9.70836C89.4324 8.84169 87.4488 8.35451 85.3553 8.35451C77.7009 8.35451 71.4959 14.8195 71.4959 22.7918C71.4959 23.567 71.5559 24.326 71.6684 25.0662C71.6108 25.0662 71.5538 25.0635 71.4959 25.0635C67.6201 25.0635 64.0127 26.2019 60.9809 28.156C58.3322 26.708 55.2932 25.8817 52.0612 25.8817C43.2543 25.8817 35.8812 32.0022 33.9468 40.2167C29.2248 40.2436 25.4077 43.0455 25.4077 46.4987C25.4077 46.6467 25.4174 46.7948 25.4316 46.9428C10.048 49.3678 0 53.3675 0 57.8946C0 65.2909 26.8509 71.2903 59.973 71.2903C71.1008 71.2903 81.518 70.612 90.4496 69.4331C92.479 73.5377 96.7063 76.3611 101.595 76.3611C105.431 76.3611 108.86 74.6197 111.14 71.8905C115.525 74.2509 120.54 75.594 125.869 75.594C135.571 75.594 144.233 71.1503 149.936 64.1901C157.901 64.7849 166.474 65.1079 175.408 65.1079C217.488 65.1079 251.6 57.9215 251.6 49.0556C251.6 43.8206 239.709 39.1724 221.309 36.2413Z" fill="#E9F6FC"/>
<path d="M251.603 49.0556C251.603 57.9215 217.488 65.1079 175.407 65.1079C166.473 65.1079 157.9 64.7849 149.936 64.1901C144.232 71.1503 135.573 75.594 125.869 75.594C120.539 75.594 115.526 74.2509 111.139 71.8905C108.862 74.6224 105.43 76.3611 101.595 76.3611C96.7047 76.3611 92.4806 73.5377 90.4482 69.4305C81.5188 70.612 71.1013 71.2903 59.973 71.2903C26.8509 71.2903 0 65.2936 0 57.8919C0 57.8623 3.94249e-07 57.8327 0.00376852 57.8031C7.28944 59.2215 16.0223 60.0478 25.4071 60.0478C38.9379 60.0478 51.1066 58.3333 59.5399 55.6014C62.0683 57.1679 65.0486 58.0695 68.2435 58.0695C74.8035 58.0695 80.4751 54.2557 83.1626 48.7246C83.1626 48.8 83.1553 48.8699 83.1553 48.9399C83.1553 58.1395 90.6148 65.6004 99.8144 65.6004C105.453 65.6004 110.432 62.7932 113.445 58.511C117.329 64.3219 123.948 68.1547 131.467 68.1547C140.215 68.1547 147.749 62.96 151.165 55.4884C152.594 58.484 155.649 60.5538 159.188 60.5538C164.004 60.5538 167.925 56.7184 168.065 51.9356C176.895 55.7144 189.326 58.0695 203.098 58.0695C224.244 58.0695 242.231 52.5197 248.871 44.7788C250.65 46.1408 251.603 47.5753 251.603 49.0556Z" fill="#E9F6FC"/>
<path d="M248.87 44.7788C242.23 52.5197 224.244 58.0695 203.097 58.0695C189.326 58.0695 176.894 55.7144 168.065 51.9356C167.924 56.7184 164.004 60.5538 159.187 60.5538C155.648 60.5538 152.594 58.484 151.165 55.4884C147.748 62.96 140.215 68.1547 131.467 68.1547C123.948 68.1547 117.328 64.3219 113.445 58.511C110.432 62.7932 105.452 65.6004 99.8141 65.6004C90.6145 65.6004 83.1549 58.1395 83.1549 48.9399C83.1549 48.8699 83.1622 48.8 83.1622 48.7246C80.4747 54.2557 74.8031 58.0695 68.2431 58.0695C65.0483 58.0695 62.068 57.1679 59.5396 55.6014C51.1062 58.3333 38.9376 60.0478 25.4068 60.0478C16.022 60.0478 7.28909 59.2215 0.00341797 57.8031C0.13288 53.3163 10.1469 49.3517 25.4326 46.9401C25.4178 46.7921 25.4068 46.644 25.4068 46.496C25.4068 43.0428 29.2236 40.2436 33.9472 40.2194C34.5359 37.7082 35.6356 35.3935 37.1275 33.391C40.5186 28.8342 45.942 25.8844 52.0614 25.8844C54.6972 25.8844 57.2036 26.4334 59.4766 27.4212C59.9874 27.6419 60.491 27.8895 60.9798 28.156C63.7895 26.3473 67.0955 25.233 70.6493 25.085C70.9309 25.0688 71.2121 25.0635 71.4972 25.0635C71.5526 25.0635 71.6118 25.0662 71.6675 25.0662C71.5564 24.326 71.4972 23.567 71.4972 22.7918C71.4972 14.8195 77.7019 8.3545 85.3539 8.3545C86.1388 8.3545 86.905 8.4218 87.6492 8.55368C87.6492 8.55368 87.653 8.55099 87.6565 8.55368C88.9078 8.77439 90.0999 9.16463 91.2106 9.70562C91.4141 9.25883 91.6362 8.8228 91.8768 8.40024C94.7091 3.38325 100.081 1.65502e-05 106.248 1.65502e-05C114.367 1.65502e-05 121.112 5.86486 122.489 13.5868C123.6 13.4684 124.725 13.4011 125.869 13.4011C132.111 13.4011 137.919 15.2448 142.787 18.41C144.701 12.5802 150.325 8.3545 156.966 8.3545C163.2 8.3545 168.543 12.0795 170.753 17.363C171.46 19.0398 171.845 20.8728 171.845 22.7918C171.845 22.9156 171.837 23.0341 171.834 23.1525C173.84 22.2132 176.076 21.6829 178.438 21.6829C181.144 21.6829 183.687 22.3746 185.905 23.5885C188.46 23.1767 191.173 22.9587 193.987 22.9587C208.476 22.9587 220.33 28.8208 221.308 36.2386C234.506 38.3407 244.354 41.3283 248.87 44.7788Z" fill="#E9F6FC"/>
<path d="M248.871 44.7788C247.622 46.2296 245.977 47.6076 243.991 48.8861C240.452 47.6641 236.331 46.959 231.933 46.959C226.905 46.959 215.847 47.15 214.252 46.1461C216.414 44.1921 217.68 41.8181 217.68 39.2585C217.68 32.5512 208.976 27.1144 198.244 27.1144C187.512 27.1144 178.809 32.5512 178.809 39.2585C178.809 40.0525 178.931 40.825 179.164 41.5732C176.487 42.1815 165.589 29.7171 158.04 28.3767C159.095 26.9825 159.717 25.2518 159.717 23.3732C159.717 18.7868 156 15.0698 151.413 15.0698C146.827 15.0698 143.11 18.7868 143.11 23.3732C143.11 26.2773 144.598 28.8262 146.852 30.3119C145.468 31.1032 144.209 32.0883 143.113 33.2295C139.208 30.3899 134.403 28.7158 129.201 28.7158C128.257 28.7158 127.324 28.7723 126.41 28.88C123.844 26.6595 119.683 24.9208 114.671 24.0299C116.015 22.1701 116.807 19.8876 116.807 17.4168C116.807 11.1752 111.75 6.11785 105.508 6.11785C99.2664 6.11785 94.2096 11.1752 94.2096 17.4168C94.2096 17.4949 94.2096 17.573 94.2133 17.651C86.3353 18.9725 80.3342 25.8251 80.3342 34.0773C80.3342 36.7312 80.9563 39.2451 82.063 41.4736C81.3191 41.3633 80.5563 41.304 79.779 41.304C73.6854 41.304 68.4173 44.8946 65.937 50.1C63.5271 46.897 59.3512 44.7788 54.6049 44.7788C49.3409 44.7788 44.7836 47.3815 42.5512 51.1792C37.5682 50.3072 31.9892 49.8173 26.0993 49.8173C18.9913 49.8173 12.3314 50.5279 6.62646 51.7687C11.0764 49.8389 17.5551 48.1863 25.4329 46.9401C25.4181 46.7921 25.4071 46.644 25.4071 46.496C25.4071 43.0428 29.2239 40.2436 33.9475 40.2194C34.5362 37.7082 35.6359 35.3935 37.1278 33.391C40.5189 28.8342 45.9423 25.8844 52.0617 25.8844C54.6975 25.8844 57.2039 26.4334 59.4769 27.4212C59.9877 27.6419 60.4913 27.8895 60.9801 28.156C63.7898 26.3473 67.0957 25.233 70.6496 25.085C70.9312 25.0688 71.2124 25.0635 71.4975 25.0635C71.5529 25.0635 71.6121 25.0661 71.6678 25.0661C71.5567 24.326 71.4975 23.567 71.4975 22.7918C71.4975 14.8195 77.7022 8.35449 85.3542 8.35449C86.1391 8.35449 86.9053 8.42179 87.6495 8.55368C87.6495 8.55368 87.6533 8.55098 87.6568 8.55368C88.9081 8.77438 90.1002 9.16462 91.2109 9.70561C91.4144 9.25882 91.6365 8.8228 91.8771 8.40023C94.7094 3.38324 100.081 7.21342e-06 106.248 7.21342e-06C114.367 7.21342e-06 121.112 5.86485 122.489 13.5868C123.6 13.4684 124.725 13.4011 125.869 13.4011C132.111 13.4011 137.92 15.2448 142.788 18.41C144.702 12.5802 150.325 8.35449 156.967 8.35449C163.201 8.35449 168.543 12.0795 170.753 17.363C171.46 19.0398 171.845 20.8728 171.845 22.7918C171.845 22.9156 171.838 23.0341 171.834 23.1525C173.84 22.2131 176.076 21.6829 178.438 21.6829C181.145 21.6829 183.688 22.3746 185.905 23.5885C188.46 23.1767 191.173 22.9587 193.987 22.9587C208.477 22.9587 220.331 28.8208 221.308 36.2386C234.506 38.3407 244.354 41.3283 248.871 44.7788Z" fill="white"/>
<path d="M243.991 48.8861C238.745 52.2478 231.098 54.9205 222.044 56.4923C217.846 57.2244 213.341 57.7224 208.632 57.9404C206.818 58.0265 204.971 58.0695 203.097 58.0695C190.207 58.0695 178.494 56.0078 169.805 52.6434C169.213 52.412 168.631 52.1751 168.065 51.9356C168.002 54.0457 167.206 55.9675 165.922 57.4586C164.67 58.9174 162.956 59.9617 161.005 60.3654C160.716 60.4273 160.42 60.4731 160.124 60.5027C159.817 60.5404 159.502 60.5538 159.187 60.5538C156.452 60.5538 154.005 59.3184 152.372 57.3671C151.894 56.7965 151.487 56.1666 151.165 55.4884C150.421 57.1194 149.481 58.6375 148.377 60.0182C144.409 64.9787 138.308 68.1547 131.467 68.1547C123.948 68.1547 117.328 64.3219 113.445 58.511C112.061 60.4758 110.261 62.131 108.177 63.3449C105.719 64.7768 102.865 65.6004 99.8141 65.6004C97.4967 65.6004 95.2902 65.1267 93.2837 64.2708C87.3308 61.73 83.1549 55.8221 83.1549 48.9399C83.1549 48.8699 83.1622 48.8 83.1622 48.7246C80.4747 54.2557 74.8032 58.0695 68.2431 58.0695C68.1578 58.0695 68.0727 58.0695 67.9912 58.0669C66.766 58.0507 65.5777 57.9 64.4338 57.6254C62.6789 57.2136 61.0315 56.5219 59.5396 55.6014C59.0325 55.7629 58.5141 55.9271 57.9809 56.0805C53.3461 57.4451 47.7265 58.519 41.4625 59.2C36.4646 59.7464 31.0522 60.0478 25.4068 60.0478C16.022 60.0478 7.28909 59.2215 0.00341797 57.8031C0.0626314 55.631 2.45028 53.5801 6.62267 51.7687C6.62267 51.7687 6.62267 51.7687 6.62617 51.7687C12.3311 50.5279 18.991 49.8174 26.099 49.8174C31.9889 49.8174 37.5679 50.3072 42.5509 51.1792C44.7833 47.3815 49.3406 44.7788 54.6047 44.7788C59.3509 44.7788 63.5268 46.8971 65.9368 50.1C68.417 44.8946 73.6851 41.3041 79.7787 41.3041C80.556 41.3041 81.3188 41.3633 82.0627 41.4736C80.956 39.2451 80.334 36.7312 80.334 34.0773C80.334 25.8251 86.335 18.9726 94.2131 17.651C94.2093 17.573 94.2093 17.4949 94.2093 17.4168C94.2093 11.1752 99.2661 6.11786 105.508 6.11786C111.749 6.11786 116.806 11.1752 116.806 17.4168C116.806 19.8876 116.014 22.1701 114.67 24.0299C119.683 24.9208 123.844 26.6595 126.41 28.88C127.324 28.7724 128.257 28.7158 129.201 28.7158C134.402 28.7158 139.207 30.3899 143.113 33.2295C144.209 32.0883 145.468 31.1032 146.852 30.3119C144.598 28.8262 143.11 26.2773 143.11 23.3732C143.11 18.7868 146.826 15.0698 151.413 15.0698C156 15.0698 159.717 18.7868 159.717 23.3732C159.717 25.2519 159.095 26.9825 158.04 28.3767C165.588 29.7171 173.749 31.3078 179.164 41.5732C178.93 40.825 178.808 40.0525 178.808 39.2585C178.808 32.5512 187.512 27.1144 198.244 27.1144C208.976 27.1144 217.68 32.5512 217.68 39.2585C217.68 41.8181 216.414 44.1921 214.252 46.1461C222.863 41.4279 226.905 46.959 231.933 46.959C236.331 46.959 240.451 47.6641 243.991 48.8861Z" fill="#E9F6FC"/>
<path d="M81.8152 61.5416C81.8152 61.5416 71.325 71.0426 52.6919 64.7498C52.6919 64.7498 70.2153 75.1149 81.8152 61.5416Z" fill="#E9F6FC"/>
<path d="M115.249 65.0379C115.249 65.0379 115.967 70.5501 130.667 69.8099C130.667 69.8099 115.249 76.0623 115.249 65.0379Z" fill="#E9F6FC"/>
<path d="M101.806 49.0771C101.806 49.0771 106.404 68.3269 130.667 55.5556C130.667 55.5556 111.246 62.96 101.806 49.0771Z" fill="#B5D7F7"/>
<path d="M155.115 51.7687C155.115 51.7687 172.687 59.3345 176.957 46.3614C176.957 46.3614 171.775 54.2126 155.115 51.7687Z" fill="#B5D7F7"/>
<path d="M52.6919 53.1494C52.6919 53.1494 57.9369 60.6722 69.9685 54.5059C69.9685 54.5059 57.4734 57.9322 52.6919 53.1494Z" fill="#B5D7F7"/>
<path d="M90.1445 41.6728C90.1445 41.6728 106.929 40.6365 106.929 25.8843C106.929 25.8843 111.431 45.1906 90.1445 41.6728Z" fill="#B5D7F7"/>
<path d="M105.38 32.8204C105.38 32.8204 116.806 38.0096 121.997 32.8204C121.997 32.8204 117.654 39.638 105.38 35.9345V32.8204Z" fill="#B5D7F7"/>
<path d="M202.132 44.7788C202.132 44.7788 204.308 58.4598 226.975 55.4964C226.975 55.4964 226.563 58.1664 226.975 58.5809C227.387 58.9927 218.659 60.2093 218.297 60.57C217.935 60.9333 200.774 59.1139 202.132 44.7788Z" fill="#B5D7F7"/>
</svg>
