<svg width="375" height="194" viewBox="0 0 375 194" fill="none" xmlns="http://www.w3.org/2000/svg" preserveAspectRatio="none">
<path d="M1318.47 9.1833C1285.57 47.53 1196.47 75.0231 1091.72 75.0231C1023.49 75.0231 961.91 63.3564 918.17 44.6363C917.474 68.3297 898.053 87.3298 874.193 87.3298C856.661 87.3298 841.53 77.0763 834.451 62.2363C817.525 99.2497 780.205 124.983 736.869 124.983C699.621 124.983 666.83 105.996 647.593 77.2097C632.665 98.4231 607.998 112.33 580.067 112.33C534.494 112.33 497.541 75.3698 497.541 29.7964C497.541 29.4498 497.577 29.1031 497.577 28.7298C484.263 56.1298 456.167 75.023 423.67 75.023C407.843 75.023 393.079 70.5564 380.554 62.7964C338.777 76.3297 278.495 84.823 211.466 84.8229C164.975 84.8229 121.714 80.7295 85.6221 73.7029C86.2634 51.4762 135.871 31.8363 211.594 19.8896C211.521 19.1563 211.466 18.4229 211.466 17.6896C211.466 0.582946 230.374 -13.2836 253.774 -13.4036C256.69 -25.8436 262.138 -37.3104 269.529 -47.2304C286.327 -69.8038 313.194 -84.4169 343.509 -84.4169C356.566 -84.4169 368.982 -81.6969 380.242 -76.8036C382.773 -75.7102 385.267 -74.4837 387.689 -73.1637C401.607 -82.1237 417.985 -87.6437 435.59 -88.377C436.985 -88.457 438.378 -88.4835 439.79 -88.4835C440.065 -88.4835 440.358 -88.4702 440.634 -88.4702C440.084 -92.1369 439.79 -95.8969 439.79 -99.7369C439.79 -139.23 470.528 -171.257 508.434 -171.257C512.322 -171.257 516.118 -170.924 519.805 -170.27C519.805 -170.27 519.823 -170.284 519.841 -170.27C526.039 -169.177 531.945 -167.244 537.447 -164.564C538.455 -166.777 539.555 -168.937 540.747 -171.03C554.778 -195.884 581.388 -212.644 611.941 -212.644C652.16 -212.644 685.574 -183.59 692.396 -145.337C697.898 -145.924 703.473 -146.257 709.14 -146.257C740.06 -146.257 768.834 -137.124 792.95 -121.444C802.431 -150.324 830.289 -171.257 863.19 -171.257C894.073 -171.257 920.537 -152.804 931.485 -126.63C934.988 -118.324 936.896 -109.243 936.896 -99.7368C936.896 -99.1235 936.858 -98.5368 936.841 -97.9501C946.78 -102.603 957.857 -105.23 969.558 -105.23C982.963 -105.23 995.562 -101.804 1006.55 -95.7902C1019.2 -97.8302 1032.64 -98.9102 1046.58 -98.9102C1118.36 -98.9102 1177.08 -69.8702 1181.93 -33.1235C1247.31 -22.7102 1296.09 -7.91004 1318.47 9.1833Z" fill="#E9F6FC"/>
<path d="M1308.47 9.18325C1302.28 16.3699 1294.13 23.1965 1284.29 29.5299C1266.76 23.4765 1246.35 19.9832 1224.56 19.9832C1199.66 19.9832 1144.88 20.9297 1136.97 15.9564C1147.68 6.2764 1153.95 -5.48365 1153.95 -18.1636C1153.95 -51.3903 1110.84 -78.3235 1057.67 -78.3236C1004.51 -78.3236 961.391 -51.3903 961.391 -18.1637C961.391 -14.2303 961.996 -10.4037 963.151 -6.69702C949.892 -3.68368 895.902 -65.4302 858.507 -72.0702C863.734 -78.9769 866.815 -87.5503 866.815 -96.8569C866.815 -119.577 848.403 -137.99 825.68 -137.99C802.958 -137.99 784.546 -119.577 784.546 -96.8569C784.546 -82.4703 791.918 -69.8435 803.086 -62.4835C796.227 -58.5635 789.992 -53.6837 784.563 -48.0304C765.215 -62.097 741.411 -70.3903 715.644 -70.3903C710.968 -70.3903 706.346 -70.1103 701.816 -69.577C689.107 -80.577 668.494 -89.1902 643.663 -93.6036C650.32 -102.817 654.244 -114.124 654.244 -126.364C654.244 -157.284 629.192 -182.337 598.272 -182.337C567.352 -182.337 542.302 -157.284 542.302 -126.364C542.302 -125.977 542.302 -125.59 542.32 -125.204C503.294 -118.657 473.566 -84.7104 473.566 -43.8304C473.566 -30.6838 476.647 -18.2303 482.13 -7.19033C478.444 -7.737 474.666 -8.03043 470.815 -8.03043C440.628 -8.03044 414.531 9.75633 402.244 35.543C390.306 19.6763 369.619 9.18309 346.107 9.18308C320.03 9.18308 297.454 22.0763 286.395 40.8896C261.71 36.5696 234.072 34.143 204.895 34.143C169.683 34.1429 136.691 37.6629 108.43 43.8096C130.474 34.2496 162.568 26.0629 201.594 19.8896C201.52 19.1562 201.466 18.4229 201.466 17.6896C201.466 0.582903 220.374 -13.2837 243.774 -13.4037C246.69 -25.8437 252.138 -37.3105 259.528 -47.2305C276.327 -69.8038 303.194 -84.4169 333.508 -84.4169C346.566 -84.4169 358.982 -81.697 370.242 -76.8036C372.772 -75.7103 375.267 -74.4838 377.688 -73.1638C391.607 -82.1238 407.984 -87.6437 425.59 -88.3771C426.984 -88.4571 428.378 -88.4836 429.79 -88.4836C430.064 -88.4836 430.358 -88.4703 430.634 -88.4703C430.083 -92.1369 429.79 -95.8969 429.79 -99.7369C429.79 -139.23 460.527 -171.257 498.434 -171.257C502.322 -171.257 506.118 -170.924 509.804 -170.27C509.804 -170.27 509.823 -170.284 509.84 -170.27C516.039 -169.177 521.944 -167.244 527.447 -164.564C528.455 -166.777 529.555 -168.937 530.747 -171.03C544.778 -195.884 571.387 -212.644 601.94 -212.644C642.159 -212.644 675.574 -183.59 682.395 -145.337C687.898 -145.924 693.472 -146.257 699.139 -146.257C730.059 -146.257 758.834 -137.124 782.95 -121.444C792.431 -150.324 820.288 -171.257 853.19 -171.257C884.072 -171.257 910.536 -152.804 921.484 -126.63C924.987 -118.324 926.895 -109.244 926.895 -99.7369C926.895 -99.1235 926.858 -98.5368 926.84 -97.9501C936.779 -102.603 947.856 -105.23 959.558 -105.23C972.963 -105.23 985.562 -101.804 996.547 -95.7902C1009.2 -97.8302 1022.64 -98.9103 1036.58 -98.9103C1108.36 -98.9103 1167.08 -69.8702 1171.93 -33.1235C1237.31 -22.7102 1286.09 -7.91008 1308.47 9.18325Z" fill="white"/>
<path d="M1294.29 29.5299C1268.31 46.1832 1230.43 59.4232 1185.58 67.2098C1164.78 70.8365 1142.46 73.3033 1119.13 74.3833C1110.15 74.8099 1101 75.0231 1091.72 75.0231C1027.86 75.0231 969.833 64.8098 926.79 48.1431C923.855 46.9965 920.977 45.823 918.17 44.6363C917.859 55.0897 913.915 64.6098 907.553 71.9965C901.354 79.2232 892.862 84.3965 883.198 86.3965C881.767 86.7032 880.301 86.9298 878.833 87.0764C877.311 87.2631 875.751 87.3298 874.193 87.3298C860.641 87.3298 848.518 81.2098 840.43 71.5431C838.065 68.7164 836.047 65.5963 834.451 62.2363C830.766 70.3163 826.107 77.8364 820.642 84.6764C800.982 109.25 770.759 124.983 736.869 124.983C699.621 124.983 666.83 105.996 647.593 77.2097C640.734 86.9431 631.821 95.143 621.495 101.156C609.318 108.25 595.179 112.33 580.067 112.33C568.587 112.33 557.657 109.983 547.717 105.743C518.227 93.1564 497.541 63.8898 497.541 29.7964C497.541 29.4498 497.577 29.1031 497.577 28.7298C484.263 56.1298 456.167 75.023 423.67 75.023C423.247 75.023 422.826 75.023 422.422 75.0097C416.353 74.9297 410.466 74.183 404.799 72.823C396.106 70.783 387.945 67.3564 380.554 62.7964C378.042 63.5964 375.474 64.4096 372.833 65.1696C349.873 71.9296 322.034 77.2496 291.003 80.623C266.245 83.3296 239.433 84.8229 211.466 84.8229C164.975 84.8229 121.714 80.7295 85.6221 73.7029C85.9154 62.9429 97.7434 52.783 118.413 43.8096C118.413 43.8096 118.413 43.8096 118.43 43.8096C146.691 37.663 179.683 34.143 214.895 34.143C244.073 34.143 271.71 36.5696 296.395 40.8896C307.454 22.0763 330.03 9.18312 356.107 9.18313C379.619 9.18313 400.306 19.6764 412.245 35.543C424.531 9.75637 450.629 -8.0304 480.815 -8.03039C484.666 -8.03039 488.445 -7.73695 492.13 -7.19029C486.647 -18.2303 483.566 -30.6837 483.566 -43.8304C483.566 -84.7104 513.294 -118.657 552.321 -125.204C552.302 -125.59 552.302 -125.977 552.302 -126.364C552.302 -157.284 577.353 -182.337 608.273 -182.337C639.193 -182.337 664.245 -157.284 664.245 -126.364C664.245 -114.124 660.321 -102.817 653.663 -93.6035C678.494 -89.1902 699.107 -80.577 711.817 -69.577C716.346 -70.1103 720.969 -70.3902 725.645 -70.3902C751.411 -70.3902 775.215 -62.097 794.563 -48.0303C799.993 -53.6837 806.227 -58.5635 813.086 -62.4835C801.918 -69.8435 794.546 -82.4702 794.546 -96.8569C794.546 -119.577 812.958 -137.99 835.681 -137.99C858.403 -137.99 876.815 -119.577 876.815 -96.8569C876.815 -87.5502 873.734 -78.9768 868.507 -72.0702C905.902 -65.4302 946.327 -57.5503 973.151 -6.69697C971.997 -10.4036 971.391 -14.2303 971.391 -18.1636C971.391 -51.3903 1014.51 -78.3235 1067.67 -78.3235C1120.84 -78.3235 1163.95 -51.3903 1163.95 -18.1636C1163.95 -5.48361 1157.68 6.27644 1146.97 15.9564C1189.63 -7.41688 1209.66 19.9833 1234.56 19.9833C1256.35 19.9833 1276.76 23.4766 1294.29 29.5299Z" fill="#E9F6FC"/>
<path d="M490.902 92.2229C490.902 92.2229 438.935 139.29 346.63 108.116C346.63 108.116 433.438 159.463 490.902 92.2229Z" fill="#E9F6FC"/>
<path d="M346.63 50.6496C346.63 50.6496 372.613 87.916 432.215 57.3694C432.215 57.3694 370.317 74.3429 346.63 50.6496Z" fill="#B5D7F7"/>
<path d="M447.617 67.3111C448.217 67.495 448.825 67.6709 449.441 67.8309C449.705 68.6065 449.992 69.3741 450.296 70.1337C449.441 69.1582 448.545 68.2147 447.617 67.3111ZM423.141 50.5195C424.589 52.3586 426.157 54.0857 427.845 55.6929C425.933 55.1172 423.973 54.6694 421.974 54.3336C422.398 53.0782 422.781 51.8068 423.141 50.5195ZM512.189 -10.0824C509.006 -10.0824 505.87 -9.8665 502.807 -9.4667C499.383 -14.2163 495.16 -18.3503 490.313 -21.6447C491.689 -26.2264 492.441 -31.0879 492.441 -36.1254C492.441 -63.8237 469.981 -86.2765 442.274 -86.2765C414.575 -86.2765 392.115 -63.8237 392.115 -36.1255C392.115 -34.3743 392.203 -32.6552 392.379 -30.9521C381.013 -38.4044 367.48 -42.8022 352.922 -42.9941C354.402 -46.6403 355.21 -50.4464 355.21 -54.3564C355.21 -76.7933 329.415 -95.6639 294.397 -101.213C274.497 -135.964 231.649 -160 182.002 -160C113.375 -160 57.7448 -114.079 57.7448 -57.427C57.7448 -39.172 63.5357 -22.0285 73.6619 -7.17991C69.8066 -5.36481 66.1433 -3.20591 62.6959 -0.775122C54.7054 -3.10197 46.2589 -4.37334 37.5165 -4.37334C26.6785 -4.37334 16.2964 -2.45426 6.67422 1.05599C6.68222 0.800117 6.69812 0.55224 6.69812 0.296367C6.69813 -46.5523 -31.2948 -84.5255 -78.1501 -84.5255C-125.014 -84.5255 -163.007 -46.5524 -163.007 0.296337C-163.007 18.2154 -157.432 34.8312 -147.945 48.5204C-179.755 51.167 -203.999 64.8083 -203.999 81.2481C-203.999 99.583 -173.853 114.448 -136.675 114.448C-124.326 114.448 -112.768 112.8 -102.826 109.938C-98.9303 139.203 -73.879 161.792 -43.5406 161.792C-34.4383 161.792 -25.8158 159.753 -18.0892 156.115C-2.78803 168.181 16.5123 175.393 37.5165 175.393C59.4244 175.393 79.5008 167.549 95.0979 154.532C107.944 178.048 132.907 194 161.598 194C187.097 194 209.645 181.382 223.362 162.056C241.031 170.42 263.107 175.393 287.055 175.393C328.951 175.393 365.112 160.193 381.981 138.204C390.507 145.728 401.697 150.302 413.959 150.302C440.658 150.302 462.294 128.665 462.294 101.982C462.294 96.2008 461.278 90.6675 459.423 85.5341C471.421 100.151 490.585 109.618 512.189 109.618C548.534 109.618 578.001 82.8234 578.001 49.7679C578.001 16.7123 548.534 -10.0824 512.189 -10.0824Z" fill="#E9F6FC"/>
<path d="M242.458 60.8507C240.777 60.3422 239.047 59.9468 237.281 59.6502C237.648 58.5344 237.987 57.4186 238.298 56.2816C239.583 57.9059 240.968 59.4312 242.458 60.8507Z" fill="#E9F6FC"/>
<path d="M262.28 73.6045C261.524 72.7359 260.733 71.9096 259.907 71.1116C260.444 71.2811 260.981 71.4223 261.524 71.5706C261.765 72.2486 262.012 72.9336 262.28 73.6045Z" fill="#E9F6FC"/>
<path d="M43.9333 138.411C43.9333 138.411 29.6894 168.848 -23.416 157.196C-23.416 157.196 38.1072 192.159 43.9333 138.411Z" fill="#E9F6FC"/>
</svg>
