<svg width="252" height="77" viewBox="0 0 252 77" fill="none" xmlns="http://www.w3.org/2000/svg">
<path d="M30.2936 36.2413C31.2712 28.8208 43.1257 22.9587 57.6157 22.9587C60.4295 22.9587 63.1433 23.1794 65.6986 23.5912C67.9146 22.3746 70.4583 21.6829 73.1641 21.6829C75.5259 21.6829 77.7634 22.2105 79.768 23.1525C79.7651 23.0341 79.7586 22.9129 79.7586 22.7918C79.7586 14.8195 86.4196 8.35451 94.636 8.35451C101.278 8.35451 106.902 12.5802 108.814 18.4127C113.684 15.2448 119.492 13.4011 125.733 13.4011C126.876 13.4011 128.004 13.4657 129.115 13.5868C130.492 5.86486 137.236 2.16479e-05 145.354 2.16479e-05C152.045 2.16479e-05 157.801 3.9835 160.391 9.70836C162.17 8.84169 164.154 8.35451 166.247 8.35451C173.902 8.35451 180.107 14.8195 180.107 22.7918C180.107 23.567 180.047 24.326 179.934 25.0662C179.992 25.0662 180.049 25.0635 180.107 25.0635C183.983 25.0635 187.59 26.2019 190.622 28.156C193.27 26.708 196.309 25.8817 199.541 25.8817C208.348 25.8817 215.721 32.0022 217.656 40.2167C222.378 40.2436 226.195 43.0455 226.195 46.4987C226.195 46.6467 226.185 46.7948 226.171 46.9428C241.555 49.3678 251.603 53.3675 251.603 57.8946C251.603 65.2909 224.752 71.2903 191.63 71.2903C180.502 71.2903 170.085 70.612 161.153 69.4331C159.124 73.5377 154.896 76.3611 150.008 76.3611C146.172 76.3611 142.742 74.6197 140.463 71.8905C136.078 74.2509 131.063 75.594 125.733 75.594C116.032 75.594 107.37 71.1503 101.667 64.1901C93.7015 64.7849 85.129 65.1079 76.195 65.1079C34.115 65.1079 0.00270847 57.9215 0.00270847 49.0556C0.00270847 43.8206 11.8938 39.1724 30.2936 36.2413Z" fill="#E9F6FC"/>
<path d="M1.18131e-06 49.0556C1.18131e-06 57.9215 34.115 65.1079 76.1961 65.1079C85.1293 65.1079 93.7031 64.7849 101.666 64.1901C107.371 71.1503 116.03 75.594 125.733 75.594C131.064 75.594 136.077 74.2509 140.464 71.8905C142.74 74.6224 146.172 76.3611 150.008 76.3611C154.898 76.3611 159.122 73.5377 161.154 69.4305C170.084 70.612 180.501 71.2903 191.63 71.2903C224.752 71.2903 251.603 65.2936 251.603 57.8919C251.603 57.8623 251.603 57.8327 251.599 57.8031C244.313 59.2215 235.58 60.0478 226.196 60.0478C212.665 60.0478 200.496 58.3333 192.063 55.6014C189.534 57.1679 186.554 58.0695 183.359 58.0695C176.799 58.0695 171.128 54.2557 168.44 48.7246C168.44 48.8 168.447 48.8699 168.447 48.9399C168.447 58.1395 160.988 65.6004 151.788 65.6004C146.15 65.6004 141.171 62.7932 138.157 58.511C134.274 64.3219 127.655 68.1547 120.136 68.1547C111.388 68.1547 103.854 62.96 100.437 55.4884C99.0083 58.484 95.954 60.5538 92.4149 60.5538C87.5985 60.5538 83.678 56.7184 83.5375 51.9356C74.708 55.7144 62.2767 58.0695 48.505 58.0695C27.3588 58.0695 9.37187 52.5197 2.73189 44.7788C0.952799 46.1408 1.18131e-06 47.5753 1.18131e-06 49.0556Z" fill="#E9F6FC"/>
<path d="M2.73226 44.7788C9.37224 52.5197 27.3591 58.0695 48.5053 58.0695C62.277 58.0695 74.7083 55.7144 83.5378 51.9356C83.6783 56.7184 87.5988 60.5538 92.4153 60.5538C95.9544 60.5538 99.0087 58.484 100.438 55.4884C103.854 62.96 111.388 68.1547 120.136 68.1547C127.655 68.1547 134.274 64.3219 138.158 58.511C141.171 62.7932 146.15 65.6004 151.789 65.6004C160.988 65.6004 168.448 58.1395 168.448 48.9399C168.448 48.8699 168.44 48.8 168.44 48.7246C171.128 54.2557 176.8 58.0695 183.36 58.0695C186.554 58.0695 189.535 57.1679 192.063 55.6014C200.496 58.3333 212.665 60.0478 226.196 60.0478C235.581 60.0478 244.314 59.2215 251.599 57.8031C251.47 53.3163 241.456 49.3517 226.17 46.9401C226.185 46.7921 226.196 46.644 226.196 46.496C226.196 43.0428 222.379 40.2436 217.655 40.2194C217.067 37.7082 215.967 35.3935 214.475 33.391C211.084 28.8342 205.661 25.8844 199.541 25.8844C196.905 25.8844 194.399 26.4334 192.126 27.4212C191.615 27.6419 191.112 27.8895 190.623 28.156C187.813 26.3473 184.507 25.233 180.953 25.085C180.672 25.0688 180.391 25.0635 180.105 25.0635C180.05 25.0635 179.991 25.0662 179.935 25.0662C180.046 24.326 180.105 23.567 180.105 22.7918C180.105 14.8195 173.901 8.3545 166.249 8.3545C165.464 8.3545 164.698 8.4218 163.953 8.55368C163.953 8.55368 163.95 8.55099 163.946 8.55368C162.695 8.77439 161.503 9.16463 160.392 9.70562C160.189 9.25883 159.966 8.8228 159.726 8.40024C156.894 3.38325 151.522 1.65502e-05 145.354 1.65502e-05C137.236 1.65502e-05 130.491 5.86486 129.114 13.5868C128.003 13.4684 126.877 13.4011 125.734 13.4011C119.492 13.4011 113.683 15.2448 108.815 18.41C106.901 12.5802 101.278 8.3545 94.6363 8.3545C88.4022 8.3545 83.0601 12.0795 80.8501 17.363C80.143 19.0398 79.7579 20.8728 79.7579 22.7918C79.7579 22.9156 79.7654 23.0341 79.7689 23.1525C77.7626 22.2132 75.5265 21.6829 73.1645 21.6829C70.4584 21.6829 67.9152 22.3746 65.6977 23.5885C63.1431 23.1767 60.4295 22.9587 57.6161 22.9587C43.1263 22.9587 31.2723 28.8208 30.295 36.2386C17.0969 38.3407 7.24863 41.3283 2.73226 44.7788Z" fill="#E9F6FC"/>
<path d="M2.73195 44.7788C3.98082 46.2296 5.62533 47.6076 7.61167 48.8861C11.151 47.6641 15.2717 46.959 19.6697 46.959C24.6972 46.959 35.7553 47.15 37.3508 46.1461C35.1887 44.1921 33.9226 41.8181 33.9226 39.2585C33.9226 32.5512 42.6262 27.1144 53.3583 27.1144C64.0905 27.1144 72.7941 32.5512 72.7941 39.2585C72.7941 40.0525 72.6719 40.825 72.4388 41.5732C75.1152 42.1815 86.014 29.7171 93.5626 28.3767C92.5076 26.9825 91.8856 25.2518 91.8856 23.3732C91.8856 18.7868 95.6023 15.0698 100.189 15.0698C104.776 15.0698 108.493 18.7868 108.493 23.3732C108.493 26.2773 107.005 28.8262 104.75 30.3119C106.135 31.1032 107.393 32.0883 108.489 33.2295C112.395 30.3899 117.2 28.7158 122.401 28.7158C123.345 28.7158 124.279 28.7723 125.193 28.88C127.758 26.6595 131.919 24.9208 136.932 24.0299C135.588 22.1701 134.796 19.8876 134.796 17.4168C134.796 11.1752 139.853 6.11785 146.095 6.11785C152.336 6.11785 157.393 11.1752 157.393 17.4168C157.393 17.4949 157.393 17.573 157.389 17.651C165.267 18.9725 171.268 25.8251 171.268 34.0773C171.268 36.7312 170.646 39.2451 169.54 41.4736C170.284 41.3633 171.046 41.304 171.824 41.304C177.917 41.304 183.185 44.8946 185.666 50.1C188.076 46.897 192.251 44.7788 196.998 44.7788C202.262 44.7788 206.819 47.3815 209.051 51.1792C214.034 50.3072 219.613 49.8173 225.503 49.8173C232.611 49.8173 239.271 50.5279 244.976 51.7687C240.526 49.8389 234.048 48.1863 226.17 46.9401C226.185 46.7921 226.196 46.644 226.196 46.496C226.196 43.0428 222.379 40.2436 217.655 40.2194C217.066 37.7082 215.967 35.3935 214.475 33.391C211.084 28.8342 205.66 25.8844 199.541 25.8844C196.905 25.8844 194.399 26.4334 192.126 27.4212C191.615 27.6419 191.111 27.8895 190.623 28.156C187.813 26.3473 184.507 25.233 180.953 25.085C180.671 25.0688 180.39 25.0635 180.105 25.0635C180.05 25.0635 179.991 25.0661 179.935 25.0661C180.046 24.326 180.105 23.567 180.105 22.7918C180.105 14.8195 173.9 8.35449 166.248 8.35449C165.464 8.35449 164.697 8.42179 163.953 8.55368C163.953 8.55368 163.949 8.55098 163.946 8.55368C162.695 8.77438 161.503 9.16462 160.392 9.70561C160.188 9.25882 159.966 8.8228 159.726 8.40023C156.893 3.38324 151.522 7.21342e-06 145.354 7.21342e-06C137.236 7.21342e-06 130.49 5.86485 129.113 13.5868C128.003 13.4684 126.877 13.4011 125.733 13.4011C119.492 13.4011 113.683 15.2448 108.815 18.41C106.901 12.5802 101.278 8.35449 94.636 8.35449C88.4019 8.35449 83.0598 12.0795 80.8498 17.363C80.1427 19.0398 79.7576 20.8728 79.7576 22.7918C79.7576 22.9156 79.7651 23.0341 79.7686 23.1525C77.7624 22.2131 75.5262 21.6829 73.1642 21.6829C70.4581 21.6829 67.9149 22.3746 65.6974 23.5885C63.1428 23.1767 60.4293 22.9587 57.6158 22.9587C43.126 22.9587 31.272 28.8208 30.2947 36.2386C17.0966 38.3407 7.24832 41.3283 2.73195 44.7788Z" fill="white"/>
<path d="M7.61196 48.8861C12.8577 52.2478 20.5044 54.9205 29.5584 56.4923C33.7563 57.2244 38.2616 57.7224 42.9707 57.9404C44.7848 58.0265 46.632 58.0695 48.5053 58.0695C61.3958 58.0695 73.109 56.0078 81.7978 52.6434C82.3902 52.412 82.9713 52.1751 83.5378 51.9356C83.6005 54.0457 84.3967 55.9675 85.6811 57.4586C86.9324 58.9174 88.6466 59.9617 90.5974 60.3654C90.8862 60.4273 91.1823 60.4731 91.4786 60.5027C91.7857 60.5404 92.1006 60.5538 92.4153 60.5538C95.1509 60.5538 97.5981 59.3184 99.2307 57.3671C99.7082 56.7965 100.115 56.1666 100.438 55.4884C101.182 57.1194 102.122 58.6375 103.225 60.0182C107.194 64.9787 113.295 68.1547 120.136 68.1547C127.655 68.1547 134.274 64.3219 138.158 58.511C139.542 60.4758 141.341 62.131 143.426 63.3449C145.884 64.7768 148.738 65.6004 151.789 65.6004C154.106 65.6004 156.312 65.1267 158.319 64.2708C164.272 61.73 168.448 55.8221 168.448 48.9399C168.448 48.8699 168.44 48.8 168.44 48.7246C171.128 54.2557 176.8 58.0695 183.36 58.0695C183.445 58.0695 183.53 58.0695 183.611 58.0669C184.837 58.0507 186.025 57.9 187.169 57.6254C188.924 57.2136 190.571 56.5219 192.063 55.6014C192.57 55.7629 193.089 55.9271 193.622 56.0805C198.257 57.4451 203.876 58.519 210.14 59.2C215.138 59.7464 220.55 60.0478 226.196 60.0478C235.581 60.0478 244.314 59.2215 251.599 57.8031C251.54 55.631 249.152 53.5801 244.98 51.7687C244.98 51.7687 244.98 51.7687 244.976 51.7687C239.272 50.5279 232.612 49.8174 225.504 49.8174C219.614 49.8174 214.035 50.3072 209.052 51.1792C206.819 47.3815 202.262 44.7788 196.998 44.7788C192.252 44.7788 188.076 46.8971 185.666 50.1C183.186 44.8946 177.918 41.3041 171.824 41.3041C171.047 41.3041 170.284 41.3633 169.54 41.4736C170.647 39.2451 171.269 36.7312 171.269 34.0773C171.269 25.8251 165.268 18.9726 157.39 17.651C157.393 17.573 157.393 17.4949 157.393 17.4168C157.393 11.1752 152.337 6.11786 146.095 6.11786C139.853 6.11786 134.796 11.1752 134.796 17.4168C134.796 19.8876 135.588 22.1701 136.932 24.0299C131.92 24.9208 127.759 26.6595 125.193 28.88C124.279 28.7724 123.346 28.7158 122.402 28.7158C117.2 28.7158 112.395 30.3899 108.49 33.2295C107.394 32.0883 106.135 31.1032 104.751 30.3119C107.005 28.8262 108.493 26.2773 108.493 23.3732C108.493 18.7868 104.776 15.0698 100.189 15.0698C95.6026 15.0698 91.8858 18.7868 91.8858 23.3732C91.8858 25.2519 92.5079 26.9825 93.5629 28.3767C86.0143 29.7171 77.8539 31.3078 72.4391 41.5732C72.6722 40.825 72.7944 40.0525 72.7944 39.2585C72.7944 32.5512 64.0908 27.1144 53.3586 27.1144C42.6265 27.1144 33.9229 32.5512 33.9229 39.2585C33.9229 41.8181 35.189 44.1921 37.3511 46.1461C28.7401 41.4279 24.6975 46.959 19.67 46.959C15.272 46.959 11.1513 47.6641 7.61196 48.8861Z" fill="#E9F6FC"/>
<path d="M169.787 61.5416C169.787 61.5416 180.278 71.0426 198.911 64.7498C198.911 64.7498 181.387 75.1149 169.787 61.5416Z" fill="#E9F6FC"/>
<path d="M136.354 65.0379C136.354 65.0379 135.635 70.5501 120.936 69.8099C120.936 69.8099 136.354 76.0623 136.354 65.0379Z" fill="#E9F6FC"/>
<path d="M149.797 49.0771C149.797 49.0771 145.199 68.3269 120.936 55.5556C120.936 55.5556 140.356 62.96 149.797 49.0771Z" fill="#B5D7F7"/>
<path d="M96.4874 51.7687C96.4874 51.7687 78.9158 59.3345 74.6452 46.3614C74.6452 46.3614 79.828 54.2126 96.4874 51.7687Z" fill="#B5D7F7"/>
<path d="M198.911 53.1494C198.911 53.1494 193.666 60.6722 181.634 54.5059C181.634 54.5059 194.129 57.9322 198.911 53.1494Z" fill="#B5D7F7"/>
<path d="M161.458 41.6728C161.458 41.6728 144.673 40.6365 144.673 25.8843C144.673 25.8843 140.171 45.1906 161.458 41.6728Z" fill="#B5D7F7"/>
<path d="M146.222 32.8204C146.222 32.8204 134.797 38.0096 129.606 32.8204C129.606 32.8204 133.948 39.638 146.222 35.9345V32.8204Z" fill="#B5D7F7"/>
<path d="M49.471 44.7788C49.471 44.7788 47.2944 58.4598 24.6281 55.4964C24.6281 55.4964 25.0401 58.1664 24.6281 58.5809C24.2157 58.9927 32.9435 60.2093 33.3055 60.57C33.6673 60.9333 50.8284 59.1139 49.471 44.7788Z" fill="#B5D7F7"/>
</svg>
