<svg width="375" height="518" viewBox="0 0 375 518" fill="none" xmlns="http://www.w3.org/2000/svg">
<rect x="-431" y="324" width="1189" height="258" fill="#E9F6FC"/>
<path d="M1096.33 179.533C1091.49 142.773 1032.76 113.733 960.979 113.733C947.04 113.733 933.596 114.827 920.937 116.867C909.96 110.84 897.359 107.413 883.955 107.413C872.255 107.413 861.171 110.027 851.24 114.693C851.255 114.107 851.287 113.507 851.287 112.907C851.287 73.4134 818.289 41.3867 777.587 41.3867C744.681 41.3867 716.823 62.3199 707.352 91.2133C683.224 75.52 654.456 66.3867 623.536 66.3867C617.873 66.3867 612.288 66.7068 606.783 67.3068C599.964 29.0534 566.555 0 526.337 0C493.193 0 464.677 19.7335 451.848 48.0935C443.033 43.8002 433.207 41.3867 422.836 41.3867C384.917 41.3867 354.179 73.4134 354.179 112.907C354.179 116.747 354.476 120.507 355.033 124.173C354.748 124.173 354.465 124.16 354.179 124.16C334.979 124.16 317.108 129.8 302.089 139.48C288.968 132.307 273.913 128.213 257.903 128.213C214.275 128.213 177.749 158.533 168.167 199.227C144.775 199.36 125.865 213.24 125.865 230.347C125.865 231.08 125.913 231.813 125.984 232.547C49.776 244.56 0 264.373 0 286.8C0 323.44 133.015 353.16 297.096 353.16C352.221 353.16 403.827 349.8 448.072 343.96C458.125 364.293 479.067 378.28 503.284 378.28C522.288 378.28 539.276 369.653 550.569 356.133C572.289 367.827 597.135 374.48 623.536 374.48C671.595 374.48 714.504 352.467 742.756 317.987C782.216 320.933 824.683 322.533 868.94 322.533C1077.4 322.533 1246.38 286.933 1246.38 243.013C1246.38 217.08 1187.48 194.053 1096.33 179.533Z" fill="#E9F6FC"/>
<path d="M1246.4 243.013C1246.4 286.933 1077.4 322.533 868.935 322.533C824.681 322.533 782.208 320.933 742.76 317.987C714.499 352.467 671.604 374.48 623.536 374.48C597.128 374.48 572.296 367.827 550.564 356.133C539.285 369.667 522.284 378.28 503.285 378.28C479.059 378.28 458.133 364.293 448.065 343.947C403.831 349.8 352.224 353.16 297.096 353.16C133.015 353.16 0 323.453 0 286.787C0 286.64 1.95305e-06 286.493 0.0186686 286.347C36.1107 293.373 79.372 297.467 125.863 297.467C192.892 297.467 253.173 288.973 294.951 275.44C307.476 283.2 322.24 287.667 338.067 287.667C370.564 287.667 398.66 268.773 411.973 241.373C411.973 241.747 411.937 242.093 411.937 242.44C411.937 288.013 448.891 324.973 494.464 324.973C522.395 324.973 547.061 311.067 561.989 289.853C581.227 318.64 614.017 337.627 651.265 337.627C694.601 337.627 731.921 311.893 748.848 274.88C755.927 289.72 771.057 299.973 788.589 299.973C812.449 299.973 831.871 280.973 832.567 257.28C876.307 276 937.889 287.667 1006.11 287.667C1110.87 287.667 1199.97 260.173 1232.86 221.827C1241.68 228.573 1246.4 235.68 1246.4 243.013Z" fill="#E9F6FC"/>
<path d="M1232.86 221.827C1199.97 260.174 1110.87 287.667 1006.11 287.667C937.889 287.667 876.307 276 832.567 257.28C831.871 280.973 812.449 299.973 788.589 299.973C771.057 299.973 755.927 289.72 748.848 274.88C731.921 311.893 694.601 337.627 651.265 337.627C614.017 337.627 581.227 318.64 561.989 289.853C547.061 311.067 522.395 324.973 494.464 324.973C448.891 324.973 411.937 288.013 411.937 242.44C411.937 242.093 411.973 241.747 411.973 241.373C398.66 268.773 370.564 287.667 338.067 287.667C322.24 287.667 307.476 283.2 294.951 275.44C253.173 288.973 192.892 297.467 125.863 297.467C79.3719 297.467 36.1106 293.373 0.0185547 286.347C0.659888 264.12 50.2679 244.48 125.991 232.533C125.917 231.8 125.863 231.067 125.863 230.333C125.863 213.227 144.771 199.36 168.171 199.24C171.087 186.8 176.535 175.333 183.925 165.413C200.724 142.84 227.591 128.227 257.905 128.227C270.963 128.227 283.379 130.947 294.639 135.84C297.169 136.934 299.664 138.16 302.085 139.48C316.004 130.52 332.381 125 349.987 124.267C351.381 124.187 352.775 124.16 354.187 124.16C354.461 124.16 354.755 124.173 355.031 124.173C354.48 120.507 354.187 116.747 354.187 112.907C354.187 73.4135 384.924 41.3868 422.831 41.3868C426.719 41.3868 430.515 41.7202 434.201 42.3735C434.201 42.3735 434.22 42.3602 434.237 42.3735C440.436 43.4668 446.341 45.4 451.844 48.08C452.852 45.8667 453.952 43.7067 455.144 41.6133C469.175 16.76 495.784 6.10352e-05 526.337 6.10352e-05C566.556 6.10352e-05 599.971 29.0535 606.792 67.3068C612.295 66.7202 617.869 66.3868 623.536 66.3868C654.456 66.3868 683.231 75.5201 707.347 91.2001C716.828 62.3201 744.685 41.3868 777.587 41.3868C808.469 41.3868 834.933 59.84 845.881 86.0133C849.384 94.32 851.292 103.4 851.292 112.907C851.292 113.52 851.255 114.107 851.237 114.694C861.176 110.04 872.253 107.413 883.955 107.413C897.36 107.413 909.959 110.84 920.944 116.853C933.599 114.813 947.041 113.733 960.979 113.733C1032.76 113.733 1091.48 142.773 1096.32 179.52C1161.7 189.933 1210.49 204.734 1232.86 221.827Z" fill="#E9F6FC"/>
<path d="M1222.86 221.827C1216.68 229.014 1208.53 235.84 1198.69 242.173C1181.16 236.12 1160.74 232.627 1138.96 232.627C1114.05 232.627 1059.27 233.573 1051.37 228.6C1062.08 218.92 1068.35 207.16 1068.35 194.48C1068.35 161.253 1025.23 134.32 972.069 134.32C918.904 134.32 875.788 161.253 875.788 194.48C875.788 198.413 876.393 202.24 877.548 205.947C864.289 208.96 810.299 147.213 772.904 140.573C778.131 133.667 781.212 125.093 781.212 115.787C781.212 93.0667 762.8 74.6534 740.077 74.6534C717.355 74.6534 698.943 93.0667 698.943 115.787C698.943 130.173 706.315 142.8 717.483 150.16C710.624 154.08 704.389 158.96 698.96 164.613C679.612 150.547 655.808 142.253 630.041 142.253C625.365 142.253 620.743 142.533 616.213 143.067C603.504 132.067 582.891 123.453 558.06 119.04C564.717 109.827 568.641 98.52 568.641 86.28C568.641 55.36 543.589 30.3068 512.669 30.3068C481.749 30.3068 456.699 55.36 456.699 86.28C456.699 86.6666 456.699 87.0535 456.717 87.4401C417.691 93.9868 387.963 127.933 387.963 168.813C387.963 181.96 391.044 194.413 396.527 205.453C392.841 204.907 389.063 204.613 385.212 204.613C355.025 204.613 328.928 222.4 316.641 248.187C304.703 232.32 284.016 221.827 260.504 221.827C234.427 221.827 211.851 234.72 200.792 253.533C176.107 249.213 148.469 246.787 119.292 246.787C84.08 246.787 51.088 250.307 22.8267 256.453C44.8707 246.893 76.9653 238.707 115.991 232.533C115.917 231.8 115.863 231.067 115.863 230.333C115.863 213.227 134.771 199.36 158.171 199.24C161.087 186.8 166.535 175.333 173.925 165.413C190.724 142.84 217.591 128.227 247.905 128.227C260.963 128.227 273.379 130.947 284.639 135.84C287.169 136.933 289.664 138.16 292.085 139.48C306.004 130.52 322.381 125 339.987 124.267C341.381 124.187 342.775 124.16 344.187 124.16C344.461 124.16 344.755 124.173 345.031 124.173C344.48 120.507 344.187 116.747 344.187 112.907C344.187 73.4135 374.924 41.3867 412.831 41.3867C416.719 41.3867 420.515 41.7201 424.201 42.3735C424.201 42.3735 424.22 42.3601 424.237 42.3735C430.436 43.4668 436.341 45.4 441.844 48.08C442.852 45.8666 443.952 43.7066 445.144 41.6133C459.175 16.76 485.784 3.05176e-05 516.337 3.05176e-05C556.556 3.05176e-05 589.971 29.0535 596.792 67.3068C602.295 66.7201 607.869 66.3867 613.536 66.3867C644.456 66.3867 673.231 75.52 697.347 91.2C706.828 62.32 734.685 41.3867 767.587 41.3867C798.469 41.3867 824.933 59.84 835.881 86.0133C839.384 94.32 841.292 103.4 841.292 112.907C841.292 113.52 841.255 114.107 841.237 114.694C851.176 110.04 862.253 107.413 873.955 107.413C887.36 107.413 899.959 110.84 910.944 116.853C923.599 114.813 937.041 113.733 950.979 113.733C1022.76 113.733 1081.48 142.773 1086.32 179.52C1151.7 189.933 1200.49 204.734 1222.86 221.827Z" fill="white"/>
<path d="M1208.69 242.173C1182.7 258.827 1144.82 272.067 1099.97 279.853C1079.18 283.48 1056.86 285.947 1033.53 287.027C1024.54 287.454 1015.39 287.667 1006.11 287.667C942.254 287.667 884.229 277.453 841.187 260.787C838.252 259.64 835.373 258.467 832.567 257.28C832.256 267.733 828.312 277.253 821.949 284.64C815.75 291.867 807.259 297.04 797.595 299.04C796.164 299.347 794.697 299.573 793.229 299.72C791.708 299.907 790.148 299.973 788.589 299.973C775.037 299.973 762.914 293.853 754.827 284.187C752.461 281.36 750.444 278.24 748.848 274.88C745.163 282.96 740.504 290.48 735.039 297.32C715.378 321.893 685.156 337.627 651.265 337.627C614.017 337.627 581.227 318.64 561.989 289.853C555.131 299.587 546.217 307.787 535.892 313.8C523.715 320.893 509.576 324.973 494.464 324.973C482.984 324.973 472.053 322.627 462.113 318.387C432.624 305.8 411.937 276.533 411.937 242.44C411.937 242.093 411.973 241.747 411.973 241.373C398.66 268.773 370.564 287.667 338.067 287.667C337.644 287.667 337.223 287.667 336.819 287.653C330.749 287.573 324.863 286.827 319.196 285.467C310.503 283.427 302.341 280 294.951 275.44C292.439 276.24 289.871 277.053 287.229 277.813C264.269 284.573 236.431 289.893 205.4 293.267C180.641 295.973 153.829 297.467 125.863 297.467C79.3719 297.467 36.1106 293.373 0.0185547 286.347C0.311888 275.587 12.1399 265.427 32.8092 256.453C32.8092 256.453 32.8092 256.453 32.8266 256.453C61.0879 250.307 94.0799 246.787 129.292 246.787C158.469 246.787 186.107 249.213 210.792 253.533C221.851 234.72 244.427 221.827 270.504 221.827C294.016 221.827 314.703 232.32 326.641 248.187C338.928 222.4 365.025 204.613 395.212 204.613C399.063 204.613 402.841 204.907 406.527 205.453C401.044 194.413 397.963 181.96 397.963 168.813C397.963 127.933 427.691 93.9868 466.717 87.4402C466.699 87.0535 466.699 86.6667 466.699 86.28C466.699 55.36 491.749 30.3068 522.669 30.3068C553.589 30.3068 578.641 55.36 578.641 86.28C578.641 98.52 574.717 109.827 568.06 119.04C592.891 123.453 613.504 132.067 626.213 143.067C630.742 142.533 635.365 142.253 640.041 142.253C665.808 142.253 689.612 150.547 708.96 164.613C714.389 158.96 720.624 154.08 727.482 150.16C716.315 142.8 708.943 130.173 708.943 115.787C708.943 93.0668 727.354 74.6534 750.077 74.6534C772.8 74.6534 791.212 93.0668 791.212 115.787C791.212 125.093 788.131 133.667 782.904 140.574C820.299 147.214 860.724 155.093 887.548 205.947C886.393 202.24 885.788 198.413 885.788 194.48C885.788 161.253 928.904 134.32 982.069 134.32C1035.23 134.32 1078.35 161.253 1078.35 194.48C1078.35 207.16 1072.08 218.92 1061.37 228.6C1104.03 205.227 1124.05 232.627 1148.96 232.627C1170.74 232.627 1191.16 236.12 1208.69 242.173Z" fill="#E9F6FC"/>
<path d="M405.299 304.867C405.299 304.867 353.332 351.933 261.027 320.76C261.027 320.76 347.835 372.107 405.299 304.867Z" fill="#E9F6FC"/>
<path d="M261.027 263.293C261.027 263.293 287.01 300.56 346.612 270.013C346.612 270.013 284.714 286.987 261.027 263.293Z" fill="#B5D7F7"/>
<path d="M174.311 283.755C174.84 283.918 175.377 284.073 175.921 284.214C176.154 284.899 176.408 285.577 176.676 286.248C175.921 285.387 175.13 284.553 174.311 283.755ZM152.701 268.925C153.979 270.55 155.364 272.075 156.854 273.494C155.166 272.986 153.436 272.591 151.67 272.294C152.045 271.185 152.384 270.062 152.701 268.925ZM231.321 215.403C228.511 215.403 225.742 215.594 223.038 215.947C220.015 211.752 216.287 208.101 212.007 205.192C213.222 201.145 213.885 196.852 213.885 192.403C213.885 167.94 194.056 148.111 169.593 148.111C145.138 148.111 125.308 167.94 125.308 192.403C125.308 193.949 125.386 195.468 125.541 196.972C115.506 190.39 103.558 186.506 90.7051 186.337C92.0116 183.116 92.7248 179.755 92.7248 176.302C92.7248 156.486 69.9501 139.82 39.0332 134.919C21.4632 104.228 -16.3672 83.0001 -60.2004 83.0001C-120.791 83.0001 -169.907 123.556 -169.907 173.59C-169.907 189.712 -164.794 204.853 -155.854 217.967C-159.257 219.57 -162.492 221.477 -165.535 223.623C-172.59 221.568 -180.048 220.446 -187.766 220.446C-197.335 220.446 -206.501 222.14 -214.997 225.241C-214.99 225.015 -214.976 224.796 -214.976 224.57C-214.976 183.194 -248.52 149.657 -289.888 149.657C-331.264 149.657 -364.808 183.194 -364.808 224.57C-364.808 240.395 -359.886 255.07 -351.51 267.16C-379.595 269.497 -401 281.545 -401 296.064C-401 312.257 -374.384 325.385 -341.56 325.385C-330.657 325.385 -320.452 323.93 -311.674 321.402C-308.235 347.249 -286.117 367.199 -259.332 367.199C-251.295 367.199 -243.682 365.398 -236.861 362.185C-223.351 372.841 -206.311 379.211 -187.766 379.211C-168.424 379.211 -150.698 372.283 -136.928 360.786C-125.586 381.555 -103.546 395.644 -78.2152 395.644C-55.7019 395.644 -35.7945 384.5 -23.6834 367.432C-8.08368 374.818 11.4072 379.211 32.5505 379.211C69.5406 379.211 101.467 365.786 116.361 346.366C123.889 353.011 133.768 357.051 144.594 357.051C168.167 357.051 187.269 337.941 187.269 314.376C187.269 309.27 186.372 304.383 184.734 299.849C195.327 312.759 212.247 321.12 231.321 321.12C263.411 321.12 289.427 297.455 289.427 268.262C289.427 239.068 263.411 215.403 231.321 215.403Z" fill="#E9F6FC"/>
<path d="M156.854 273.494C155.173 272.986 153.443 272.591 151.678 272.294C152.045 271.178 152.384 270.062 152.695 268.925C153.98 270.55 155.364 272.075 156.854 273.494Z" fill="#E9F6FC"/>
<path d="M176.676 286.248C175.921 285.38 175.13 284.553 174.304 283.755C174.84 283.925 175.377 284.066 175.921 284.214C176.161 284.892 176.408 285.577 176.676 286.248Z" fill="#E9F6FC"/>
<path d="M198.448 224.026C205.581 232.423 210.023 242.853 211.308 253.714C222.459 245.96 234.711 243.884 248.538 243.884C262.372 243.884 277.224 253.199 285.86 263.368C287.131 264.865 288.318 266.433 289.419 268.05C289.292 238.955 263.333 215.403 231.321 215.403C228.511 215.403 225.742 215.594 223.038 215.947C220.015 211.752 216.287 208.101 212.007 205.192C213.222 201.145 213.885 196.852 213.885 192.403C213.885 167.94 194.056 148.111 169.593 148.111C145.138 148.111 125.308 167.94 125.308 192.403C125.308 193.949 125.386 195.468 125.541 196.972C115.506 190.39 103.558 186.506 90.7051 186.337C92.0116 183.116 92.7248 179.755 92.7248 176.302C92.7248 156.486 69.9501 139.82 39.0332 134.919C21.4632 104.228 -16.3672 83 -60.2004 83C-120.791 83 -169.907 123.556 -169.907 173.59C-169.907 189.712 -164.794 204.853 -155.854 217.967C-159.257 219.57 -162.492 221.477 -165.535 223.623C-172.59 221.568 -180.048 220.446 -187.766 220.446C-197.335 220.446 -206.501 222.14 -214.997 225.241C-214.99 225.015 -214.976 224.796 -214.976 224.57C-214.976 183.194 -248.52 149.657 -289.888 149.657C-331.264 149.657 -364.808 183.194 -364.808 224.57C-364.808 240.395 -359.886 255.07 -351.51 267.16C-377.611 269.335 -397.928 279.893 -400.668 293.028C-400.675 293.028 -400.675 293.028 -400.682 293.028C-400.689 293.07 -400.689 293.112 -400.703 293.162C-400.76 293.473 -400.809 293.783 -400.852 294.094C-400.873 294.278 -400.908 294.461 -400.922 294.645C-400.958 294.97 -400.965 295.302 -400.979 295.626C-400.979 295.775 -401 295.916 -401 296.064C-401 298.084 -400.576 300.054 -399.785 301.961C-392.724 296.622 -384.461 293.077 -375.415 291.121C-361.22 288.056 -346.221 286.679 -331.518 287.018C-340.903 275.691 -345.487 260.804 -344.109 246.144C-342.747 231.73 -335.656 218.193 -324.633 208.822C-312.38 198.412 -298.8 195.807 -283.236 195.807C-269.402 195.807 -254.551 205.121 -245.914 215.283C-236.232 226.674 -231.493 241.801 -232.899 256.68C-233.626 264.413 -236.02 271.884 -239.77 278.6C-238.457 278.353 -237.157 278.127 -235.886 277.958C-222.49 276.129 -208.394 275.987 -195.04 278.48C-184.857 280.387 -174.843 282.753 -164.992 285.648C-161.722 276.256 -155.981 267.76 -148.347 261.27C-141.525 255.472 -134.287 252.104 -126.526 250.247C-129.795 243.157 -132.366 235.699 -134.442 228.023C-143.615 194.048 -129.583 156.182 -103.913 133.238C-75.6871 108.006 -33.4782 102.215 1.80298 113.966C36.0108 125.357 57.8956 155.702 65.247 189.931C67.3161 199.571 68.2271 209.606 68.213 219.69C71.8711 219.28 75.642 219.118 79.5402 219.118C89.5822 219.118 100.154 224.04 108.508 230.622C111.545 225.749 115.316 221.314 119.729 217.564C131.975 207.155 145.555 204.549 161.126 204.549C174.953 204.549 189.812 213.864 198.448 224.026Z" fill="white"/>
<path d="M14.0201 150.321C14.0201 150.321 14.5497 235.791 -58.562 258.135C-58.562 258.135 36.3569 250.367 14.0201 150.321Z" fill="#B5D7F7"/>
<path d="M1.8739 219.28C1.8739 219.28 47.8115 217.183 50.9257 188.201C50.9257 188.201 55.2971 221.71 -4.43945 229.478L1.8739 219.28Z" fill="#B5D7F7"/>
<path d="M231.83 259.124C231.83 259.124 195.115 320.11 119.157 264.406C119.157 264.406 182.615 299.913 231.83 259.124Z" fill="#B5D7F7"/>
</svg>
