<svg width="449" height="348" viewBox="0 0 449 348" fill="none" xmlns="http://www.w3.org/2000/svg">
<path d="M321.776 258.645L293.517 182.827L317.42 180.751L330.672 231.079L335.049 179.22L358.952 177.144L344.186 256.699L347.819 298.53L325.409 300.476L321.776 258.645Z" fill="#0B2595"/>
<path d="M288.948 303.642L285.54 283.467L273.738 284.492L273.859 304.953L251.45 306.899L255.711 186.11L286.338 183.45L311.358 301.696L288.948 303.642ZM273.585 261.927L281.801 261.213L273.162 208.527L273.585 261.927Z" fill="#0B2595"/>
<path d="M223.406 286.756L243.575 285.004L245.521 307.414L202.943 311.111L192.563 191.594L214.973 189.648L223.406 286.756Z" fill="#0B2595"/>
<path d="M152.459 195.076C178.006 192.858 187.261 200.634 189.35 224.687L190.661 239.776C192.723 263.53 184.934 272.636 159.426 275.303L162.839 314.594L140.429 316.54L130.05 197.022L152.459 195.076ZM157.48 252.893C166.145 252.141 169.004 250.387 168.251 241.722L166.941 226.633C166.188 217.968 163.071 216.733 154.405 217.486L157.48 252.893Z" fill="#0B2595"/>
<path d="M381.293 31.1641C399.37 29.5942 410.249 38.7346 412.337 62.7875L417.06 117.168C419.149 141.221 410.008 152.1 391.931 153.67C373.854 155.24 362.976 146.099 360.887 122.046L356.164 67.6657C354.075 43.6128 363.216 32.734 381.293 31.1641ZM394.521 117.62L390.058 66.2276C389.175 56.0686 388.169 53.1455 383.239 53.5736C378.309 54.0018 377.821 57.0546 378.703 67.2136L383.167 118.606C384.049 128.765 385.055 131.688 389.985 131.26C394.915 130.832 395.403 127.779 394.521 117.62Z" fill="#0B2595"/>
<path d="M351.504 84.1765L329.094 86.1226L327.836 71.6311C326.954 61.4721 325.798 58.562 321.017 58.9771C316.087 59.4053 315.6 62.4581 316.482 72.6171L320.945 124.01C321.827 134.169 322.834 137.092 327.764 136.664C332.694 136.235 333.181 133.183 332.299 123.024L331.819 117.496L326.142 117.989L324.196 95.5794L352.282 93.1403L357.667 155.14L348.703 155.918L344.378 147.714C340.252 153.943 334.341 158.671 326.274 159.372C310.139 160.773 300.754 151.503 298.665 127.45L293.942 73.0692C291.854 49.0163 300.994 38.1375 319.071 36.5676C337.148 34.9977 348.027 44.1381 350.116 68.191L351.504 84.1765Z" fill="#0B2595"/>
<path d="M243.88 93.0713C257.259 101.543 266.937 108.981 268.896 131.54C270.725 152.605 263.806 164.796 244.235 166.496C224.664 168.196 214.811 160.471 211.814 125.961L234.224 124.015C235.755 141.643 238.106 144.45 242.289 144.086C246.472 143.723 247.109 140.657 246.486 133.486C245.734 124.821 243.928 121.366 233.368 114.154C221.696 106.287 209.57 100.115 207.611 77.5561C205.911 57.9851 213.129 45.7679 231.953 44.1332C250.777 42.4985 260.59 53.2366 262.809 78.7835L240.399 80.7296C239.387 69.0766 237.335 66.2444 233.899 66.5428C230.463 66.8412 229.527 69.9329 230.02 75.61C230.773 84.275 234.955 87.3738 243.88 93.0713Z" fill="#0B2595"/>
<path d="M191.525 47.6441L198.995 46.9954L196.262 84.8636L190.286 85.3826L191.525 47.6441Z" fill="#0B2595"/>
<path d="M181.2 50.046L183.146 72.4555L167.758 73.7919L176.191 170.9L153.782 172.846L145.349 75.738L129.961 77.0743L128.015 54.6648L181.2 50.046Z" fill="#0B2595"/>
<path d="M124.032 77.5892L103.863 79.3407L106.134 105.485L126.303 103.734L128.249 126.143L108.08 127.895L110.351 154.039L130.519 152.288L132.465 174.697L89.8871 178.395L79.5078 58.8773L122.086 55.1797L124.032 77.5892Z" fill="#0B2595"/>
<path d="M61.8427 158.252L82.0113 156.5L83.9574 178.91L41.3793 182.607L31 63.0898L53.4096 61.1437L61.8427 158.252Z" fill="#0B2595"/>
<path d="M378.61 0.280252C393.317 -0.996872 410.676 1.77756 424.421 15.1416C437.279 27.6444 441.875 44.606 443.221 60.1054L447.943 114.486C449.289 129.986 447.687 147.485 437.177 162.018C425.942 177.551 409.32 183.277 394.613 184.554C392.797 184.711 390.94 184.806 389.055 184.828L375.434 258.214L378.702 295.848C380.183 312.904 367.557 327.932 350.501 329.413L328.091 331.359C325.706 331.566 323.326 331.493 320.994 331.157C318.758 331.889 316.427 332.373 314.04 332.58L291.63 334.526C289.031 334.752 286.475 334.647 284.004 334.249C281.639 335.067 279.139 335.611 276.541 335.837L254.132 337.782C253.139 337.868 252.148 337.904 251.161 337.895C250.186 338.075 249.199 338.211 248.203 338.298L205.625 341.995C198.248 342.636 190.913 340.612 184.93 336.34C179.772 341.579 172.898 344.837 165.521 345.478L143.111 347.424C126.055 348.905 111.026 336.279 109.545 319.223L99.9415 208.638L92.5694 209.278C91.5695 209.365 90.5764 209.402 89.5928 209.394C88.6249 209.571 87.6401 209.707 86.6397 209.794L44.0616 213.491C35.8707 214.203 27.7324 211.631 21.4376 206.342C15.1429 201.053 11.2065 193.48 10.4952 185.289L0.116278 65.7715C-0.59492 57.5807 1.97694 49.4431 7.26569 43.1484C12.5545 36.8536 20.1275 32.9174 28.3184 32.206L50.7276 30.2597L51.5255 30.2012C55.9052 29.9323 60.1375 30.5925 64.0264 32.0127C67.83 29.8175 72.1624 28.3982 76.8262 27.9931L119.404 24.2959L120.172 24.2392C120.908 24.1937 121.642 24.1748 122.375 24.1816C123.344 24.0035 124.331 23.8682 125.333 23.7812L178.518 19.1621L179.316 19.1035C179.353 19.1012 179.39 19.1007 179.427 19.0986C182.356 17.857 185.521 17.0492 188.843 16.7607L196.313 16.1113C200.914 15.7117 205.485 16.352 209.719 17.9131C215.993 15.3 222.648 13.8242 229.271 13.249C244.383 11.9366 261.058 15.2013 274.089 27.8633C285.319 12.5996 301.796 6.9509 316.389 5.68357C326.414 4.81295 337.672 5.82667 348.178 10.7929C357.67 4.08978 368.585 1.15092 378.61 0.280252ZM189.351 224.687C187.262 200.634 178.006 192.858 152.459 195.076L130.05 197.022L140.429 316.54L162.839 314.594L159.427 275.303C184.934 272.636 192.723 263.53 190.66 239.776L189.351 224.687ZM192.564 191.594L202.942 311.111L245.521 307.414L243.575 285.004L223.406 286.756L214.973 189.647L192.564 191.594ZM255.711 186.109L251.449 306.898L273.859 304.953L273.738 284.492L285.54 283.467L288.948 303.643L311.357 301.696L286.338 183.45L255.711 186.109ZM335.049 179.22L330.672 231.079L317.42 180.751L293.517 182.826L321.776 258.645L325.409 300.476L347.818 298.529L344.186 256.698L358.952 177.144L335.049 179.22ZM281.802 261.213L273.585 261.927L273.162 208.527L281.802 261.213ZM154.405 217.486C163.07 216.734 166.188 217.968 166.94 226.633L168.251 241.722C169.004 250.387 166.145 252.141 157.481 252.894L154.405 217.486ZM31.0001 63.0898L41.379 182.607L83.9571 178.91L82.0118 156.5L61.8428 158.252L53.4092 61.1435L31.0001 63.0898ZM79.5079 58.8769L89.8868 178.395L132.465 174.697L130.52 152.288L110.351 154.039L108.08 127.895L128.249 126.144L126.303 103.733L106.134 105.485L103.863 79.3408L124.032 77.5888L122.086 55.1797L79.5079 58.8769ZM128.015 54.665L129.961 77.0742L145.349 75.7383L153.782 172.846L176.191 170.9L167.758 73.792L183.147 72.456L181.2 50.0459L128.015 54.665ZM262.809 78.7832C260.59 53.2366 250.777 42.4982 231.953 44.1328C213.129 45.7675 205.911 57.9849 207.61 77.5556C209.569 100.114 221.696 106.287 233.367 114.154C243.928 121.365 245.734 124.821 246.486 133.486C247.109 140.657 246.472 143.724 242.289 144.087C238.106 144.45 235.755 141.643 234.224 124.015L211.815 125.961C214.812 160.471 224.664 168.196 244.235 166.496C263.806 164.796 270.725 152.605 268.896 131.54C266.936 108.981 257.259 101.543 243.88 93.0713C234.956 87.3738 230.773 84.2751 230.021 75.6103C229.528 69.9332 230.463 66.8413 233.899 66.5429C237.335 66.2448 239.388 69.077 240.399 80.7295L262.809 78.7832ZM350.116 68.1914C348.027 44.1386 337.148 34.9976 319.071 36.5674C300.994 38.1372 291.854 49.0164 293.942 73.0693L298.665 127.45C300.754 151.503 310.139 160.773 326.273 159.372C334.341 158.671 340.253 153.943 344.378 147.714L348.703 155.919L357.667 155.14L352.282 93.1406L324.195 95.5791L326.142 117.989L331.819 117.496L332.299 123.023C333.181 133.182 332.694 136.236 327.764 136.664C322.834 137.092 321.828 134.169 320.945 124.01L316.482 72.6172C315.599 62.4582 316.088 59.4057 321.018 58.9775C325.798 58.5626 326.954 61.4723 327.836 71.6308L329.095 86.123L351.504 84.1767L350.116 68.1914ZM412.338 62.7871C410.249 38.7346 399.37 29.5943 381.293 31.164C363.216 32.7339 354.075 43.6131 356.164 67.666L360.887 122.046C362.976 146.099 373.855 155.24 391.932 153.67C410.009 152.1 419.148 141.221 417.06 117.168L412.338 62.7871ZM383.239 53.5732C388.169 53.1453 389.175 56.0689 390.058 66.2275L394.521 117.62C395.403 127.779 394.915 130.832 389.985 131.26C385.055 131.688 384.049 128.765 383.167 118.606L378.703 67.2138C377.821 57.0548 378.309 54.0014 383.239 53.5732ZM191.524 47.6445L190.286 85.3828L196.263 84.8633L198.995 46.9951L191.524 47.6445Z" fill="#0B2595"/>
<path d="M321.776 258.645L293.517 182.827L317.42 180.751L330.672 231.079L335.049 179.22L358.952 177.144L344.186 256.699L347.819 298.53L325.409 300.476L321.776 258.645Z" fill="#42D486"/>
<path d="M288.948 303.642L285.54 283.467L273.738 284.492L273.859 304.953L251.45 306.899L255.711 186.11L286.338 183.45L311.358 301.696L288.948 303.642ZM273.585 261.927L281.801 261.213L273.162 208.527L273.585 261.927Z" fill="#42D486"/>
<path d="M223.406 286.756L243.575 285.004L245.521 307.414L202.943 311.111L192.563 191.594L214.973 189.648L223.406 286.756Z" fill="#42D486"/>
<path d="M152.459 195.076C178.006 192.858 187.261 200.634 189.35 224.687L190.661 239.776C192.723 263.53 184.934 272.636 159.426 275.303L162.839 314.594L140.429 316.54L130.05 197.023L152.459 195.076ZM157.48 252.893C166.145 252.141 169.004 250.387 168.251 241.722L166.941 226.633C166.188 217.968 163.071 216.733 154.405 217.486L157.48 252.893Z" fill="#42D486"/>
<path d="M381.293 31.1641C399.37 29.5942 410.249 38.7346 412.337 62.7875L417.06 117.168C419.149 141.221 410.008 152.1 391.931 153.67C373.854 155.24 362.976 146.099 360.887 122.046L356.164 67.6658C354.075 43.6128 363.216 32.734 381.293 31.1641ZM394.521 117.62L390.058 66.2276C389.175 56.0686 388.169 53.1455 383.239 53.5737C378.309 54.0018 377.821 57.0546 378.703 67.2136L383.167 118.606C384.049 128.765 385.055 131.688 389.985 131.26C394.915 130.832 395.403 127.779 394.521 117.62Z" fill="white"/>
<path d="M351.504 84.1765L329.094 86.1226L327.836 71.6311C326.954 61.4721 325.798 58.562 321.017 58.9772C316.087 59.4053 315.6 62.4581 316.482 72.6171L320.945 124.01C321.827 134.169 322.834 137.092 327.764 136.664C332.694 136.235 333.181 133.183 332.299 123.024L331.819 117.496L326.142 117.989L324.196 95.5794L352.282 93.1403L357.667 155.14L348.703 155.919L344.378 147.714C340.252 153.943 334.341 158.671 326.274 159.372C310.139 160.773 300.754 151.503 298.665 127.45L293.942 73.0693C291.854 49.0163 300.994 38.1375 319.071 36.5676C337.148 34.9977 348.027 44.1381 350.116 68.191L351.504 84.1765Z" fill="white"/>
<path d="M243.88 93.0714C257.259 101.543 266.937 108.981 268.896 131.54C270.725 152.605 263.806 164.796 244.235 166.496C224.664 168.196 214.811 160.471 211.814 125.961L234.224 124.015C235.755 141.643 238.106 144.45 242.289 144.087C246.472 143.723 247.109 140.657 246.486 133.486C245.734 124.821 243.928 121.366 233.368 114.154C221.696 106.287 209.57 100.115 207.611 77.5561C205.911 57.9851 213.129 45.768 231.953 44.1332C250.777 42.4985 260.59 53.2366 262.809 78.7835L240.399 80.7296C239.387 69.0766 237.335 66.2444 233.899 66.5428C230.463 66.8412 229.527 69.9329 230.02 75.61C230.773 84.275 234.955 87.3738 243.88 93.0714Z" fill="white"/>
<path d="M191.525 47.6441L198.995 46.9954L196.262 84.8636L190.286 85.3826L191.525 47.6441Z" fill="white"/>
<path d="M181.2 50.046L183.146 72.4556L167.758 73.7919L176.191 170.9L153.782 172.846L145.349 75.738L129.961 77.0743L128.015 54.6648L181.2 50.046Z" fill="white"/>
<path d="M124.032 77.5892L103.863 79.3408L106.134 105.485L126.303 103.734L128.249 126.143L108.08 127.895L110.351 154.039L130.519 152.288L132.465 174.697L89.8871 178.395L79.5078 58.8773L122.086 55.1797L124.032 77.5892Z" fill="white"/>
<path d="M61.8427 158.252L82.0113 156.5L83.9574 178.91L41.3793 182.607L31 63.0898L53.4096 61.1437L61.8427 158.252Z" fill="white"/>
</svg>
