<svg width="138" height="54" viewBox="0 0 138 54" fill="none" xmlns="http://www.w3.org/2000/svg">
<path d="M127.77 43.87C124.36 43.87 121.209 42.87 118.532 41.217C121.079 37.087 122.59 32.174 122.59 26.957C122.59 12.087 110.59 0 95.827 0C81.065 0 69.065 12.087 69.065 26.957C69.065 41.826 81.065 53.913 95.827 53.913C101.741 53.913 107.223 51.957 111.626 48.696C116.158 52 121.727 54 127.77 54C131.396 54 134.849 53.304 138 52V40.522C135.151 42.652 131.612 43.87 127.77 43.87ZM110.978 32C108.993 29.87 106.662 28 103.986 26.522C101.353 25.087 98.59 24.13 95.827 23.609V33.957C96.993 34.304 98.115 34.783 99.194 35.348C101.482 36.609 103.381 38.304 104.849 40.261C102.302 42.043 99.194 43.087 95.87 43.087C87.065 43.13 79.899 35.957 79.899 27.087C79.899 18.217 87.022 11.043 95.827 11.043C104.633 11.043 111.755 18.217 111.755 27.087C111.755 28.826 111.496 30.478 110.978 32ZM19.727 28.304L9.928 1.87H0V52.13C2.935 50.565 6.518 49 10.662 47.522V26.783L17.612 45.304C19.122 44.87 20.676 44.435 22.317 44.043L28.791 26.826V42.478C31.424 41.913 38.59 40.696 39.453 40.565V1.87H28.791L19.727 28.304ZM60.259 2.53C58.744 3.461 57.919 5.213 57.397 6.857C56.732 8.957 56.249 10.9 55.964 13.087C55.96 13.13 55.917 13.496 55.77 13.496C55.627 13.496 55.64 13.235 55.64 13.235V1.878H44.806V39.783C48.561 39.304 52.187 39 55.64 38.826V19.27C55.64 18.617 55.683 17.922 55.77 17.27C55.856 16.704 56.029 16.139 56.417 15.704C56.59 15.487 56.849 15.313 57.108 15.183C57.799 14.791 58.576 14.704 59.353 14.661C60.647 14.617 64.835 14.574 64.835 14.574V1.878H62.849C61.942 1.922 61.036 2.052 60.259 2.53Z" fill="white"/>
</svg>
