<svg width="356" height="617" viewBox="0 0 356 617" fill="none" xmlns="http://www.w3.org/2000/svg">
<path d="M226.755 228.808L226.814 230.463C230.856 344.816 230.368 408.942 226.814 523.279L226.762 524.941H133.75L133.712 523.266C131.075 408.946 130.052 344.822 133.712 230.469L133.765 228.808H226.755Z" stroke="#022AB4" stroke-width="3.43011"/>
<g clip-path="url(#clip0_44_2)">
<path d="M316 262H42V286H316V262Z" fill="#00239B" fill-opacity="0.2"/>
<path d="M42 477L316 477L316 387L42 387L42 477Z" fill="url(#paint0_linear_44_2)" fill-opacity="0.28"/>
<path d="M316 250L42 250L42 335H316V250Z" fill="url(#paint1_linear_44_2)" fill-opacity="0.28"/>
<path d="M316 458H42V479H316V458Z" fill="#00239B" fill-opacity="0.2"/>
<path d="M176.536 59.7121C179.227 58.9976 182.059 58.9976 184.751 59.7121L327.567 97.6242C335.595 99.7552 340.659 107.672 339.228 115.854L326.43 189.025C325.091 196.685 318.439 202.274 310.663 202.275H50.6237C42.8473 202.274 36.1959 196.685 34.8561 189.025L22.0582 115.854C20.6274 107.672 25.6919 99.7552 33.7194 97.6242L176.536 59.7121Z" fill="#FBCB00" stroke="white" stroke-width="4.57348"/>
<path d="M177.71 64.132C179.632 63.6217 181.654 63.6217 183.577 64.132L326.393 102.045C332.127 103.567 335.744 109.222 334.722 115.066L321.926 188.236C320.969 193.708 316.217 197.7 310.663 197.7H50.6236C45.0691 197.7 40.3178 193.708 39.3609 188.236L26.564 115.066C25.542 109.222 29.1592 103.567 34.8931 102.045L177.71 64.132Z" fill="#FBCB00" stroke="#002298" stroke-width="4.57348"/>
<g filter="url(#filter0_i_44_2)">
<path d="M176.974 77.9365C178.971 77.4386 181.061 77.4386 183.058 77.9365L311.495 109.954C318.028 111.583 322.12 118.068 320.778 124.665L310.175 176.786C308.983 182.646 303.831 186.856 297.851 186.856H62.1812C56.2015 186.856 51.0489 182.646 49.857 176.786L39.2545 124.665C37.9125 118.068 42.0041 111.583 48.5367 109.954L176.974 77.9365Z" fill="#022AB4"/>
</g>
<path d="M239.77 149.87C236.36 149.87 233.209 148.87 230.532 147.217C233.079 143.087 234.59 138.174 234.59 132.957C234.59 118.087 222.59 106 207.827 106C193.065 106 181.065 118.087 181.065 132.957C181.065 147.826 193.065 159.913 207.827 159.913C213.741 159.913 219.223 157.957 223.626 154.696C228.158 158 233.727 160 239.77 160C243.396 160 246.849 159.304 250 158V146.522C247.151 148.652 243.612 149.87 239.77 149.87ZM222.978 138C220.993 135.87 218.662 134 215.986 132.522C213.353 131.087 210.59 130.13 207.827 129.609V139.957C208.993 140.304 210.115 140.783 211.194 141.348C213.482 142.609 215.381 144.304 216.849 146.261C214.302 148.043 211.194 149.087 207.87 149.087C199.065 149.13 191.899 141.957 191.899 133.087C191.899 124.217 199.022 117.043 207.827 117.043C216.633 117.043 223.755 124.217 223.755 133.087C223.755 134.826 223.496 136.478 222.978 138ZM131.727 134.304L121.928 107.87H112V158.13C114.935 156.565 118.518 155 122.662 153.522V132.783L129.612 151.304C131.122 150.87 132.676 150.435 134.317 150.043L140.791 132.826V148.478C143.424 147.913 150.59 146.696 151.453 146.565V107.87H140.791L131.727 134.304ZM172.259 108.53C170.744 109.461 169.919 111.213 169.397 112.857C168.732 114.957 168.249 116.9 167.964 119.087C167.96 119.13 167.917 119.496 167.77 119.496C167.627 119.496 167.64 119.235 167.64 119.235V107.878H156.806V145.783C160.561 145.304 164.187 145 167.64 144.826V125.27C167.64 124.617 167.683 123.922 167.77 123.27C167.856 122.704 168.029 122.139 168.417 121.704C168.59 121.487 168.849 121.313 169.108 121.183C169.799 120.791 170.576 120.704 171.353 120.661C172.647 120.617 176.835 120.574 176.835 120.574V107.878H174.849C173.942 107.922 173.036 108.052 172.259 108.53Z" fill="white"/>
<path d="M82.9568 173H266.987C270.598 173 273.927 174.946 275.699 178.092L302.179 225.092C305.934 231.758 301.117 240 293.466 240H63.0975C55.9403 240 51.0998 232.7 53.8855 226.107L73.7449 179.107C75.2603 175.521 78.713 173.152 82.5809 173.007L82.9568 173Z" fill="#00239B" stroke="white" stroke-width="4"/>
<path d="M312.702 230.439C330.581 230.439 345.073 244.933 345.073 262.811V550.939C345.073 568.817 330.581 583.311 312.702 583.311H46.2979C28.4199 583.311 13.927 568.817 13.9268 550.939V262.811L13.9375 261.975C14.3808 244.483 28.6992 230.439 46.2979 230.439H312.702ZM59.4443 262.037C53.4004 262.326 48.4339 267.038 47.9004 273.118C38.9259 375.446 41.3805 437.997 48.1758 540.307C48.6021 546.724 53.9356 551.725 60.3623 551.726H297.546L298.135 551.711C304.19 551.421 309.162 546.692 309.697 540.595C318.707 438.089 319.88 375.514 309.824 273.001C309.214 266.774 303.962 262.023 297.7 262.023H60.0322L59.4443 262.037Z" fill="#022AB4" stroke="#FBCB00" stroke-width="3"/>
<rect opacity="0.2" x="15" y="483" width="204" height="15" transform="rotate(-90 15 483)" fill="url(#paint2_linear_44_2)"/>
<rect opacity="0.2" x="329" y="483" width="204" height="15" transform="rotate(-90 329 483)" fill="url(#paint3_linear_44_2)"/>
<path d="M314.989 247.946C322.567 247.946 328.71 254.089 328.71 261.667V552.082C328.71 559.66 322.567 565.803 314.989 565.803H44.0107C36.4332 565.803 30.29 559.66 30.29 552.082V261.667C30.29 254.089 36.4332 247.946 44.0107 247.946H314.989ZM60.0322 260.523C52.9507 260.524 47.025 265.933 46.4062 272.987C37.4221 375.425 39.8811 438.062 46.6787 540.407C47.1573 547.61 53.1439 553.225 60.3623 553.226H297.546C304.642 553.225 310.571 547.795 311.192 540.727C320.208 438.147 321.384 375.477 311.317 272.854C310.631 265.857 304.731 260.523 297.7 260.523H60.0322Z" fill="#00239B"/>
<path d="M313 504H45V523H313V504Z" fill="#00239B" fill-opacity="0.2"/>
<path d="M236.119 4.55597C234.731 3.85536 233.07 4.00661 231.829 4.94745C227.039 8.57817 222.404 7.09832 215.24 4.38299C208.219 1.72228 199.481 -1.58875 190.857 4.94745C189.826 5.72897 189.219 6.95535 189.219 8.25766V32.9036C189.219 34.4712 190.096 35.9043 191.484 36.6053C192.872 37.3063 194.533 37.1544 195.774 36.2138C200.564 32.5831 205.198 34.0629 212.362 36.7783C216.359 38.2927 220.911 40.0179 225.683 40.0179C229.294 40.0179 233.03 39.0297 236.746 36.2138C237.777 35.4323 238.384 34.2059 238.384 32.9036V8.25766C238.384 6.69008 237.507 5.257 236.119 4.55597Z" fill="#0F43F4"/>
<path d="M180.643 0C178.433 0 176.642 1.86987 176.642 4.17662V55.2786C176.642 57.5853 178.433 59.4552 180.643 59.4552C182.854 59.4552 184.645 57.5853 184.645 55.2786V4.17662C184.645 1.86987 182.854 0 180.643 0Z" fill="#FBFBFB"/>
<path d="M226.138 26.7955C224.724 26.7955 223.417 26.3932 222.308 25.7286C223.364 24.0669 223.99 22.0904 223.99 19.9915C223.99 14.0095 219.014 9.14696 212.893 9.14696C206.771 9.14696 201.796 14.0095 201.796 19.9915C201.796 25.9735 206.771 30.836 212.893 30.836C215.345 30.836 217.618 30.0489 219.444 28.7371C221.323 30.0664 223.632 30.871 226.138 30.871C227.641 30.871 229.073 30.5911 230.38 30.0664V25.4487C229.199 26.3058 227.731 26.7955 226.138 26.7955ZM219.175 22.0205C218.352 21.1634 217.385 20.4113 216.276 19.8166C215.184 19.2394 214.038 18.8545 212.893 18.6447V22.8076C213.376 22.9475 213.841 23.1399 214.289 23.3673C215.238 23.8745 216.025 24.5567 216.634 25.3438C215.578 26.0609 214.289 26.4807 212.911 26.4807C209.259 26.4982 206.288 23.6121 206.288 20.0439C206.288 16.4758 209.242 13.5897 212.893 13.5897C216.544 13.5897 219.497 16.4758 219.497 20.0439C219.497 20.7436 219.39 21.4083 219.175 22.0205Z" fill="white"/>
<rect x="4.5" y="502.5" width="350" height="81" rx="9.5" fill="#00239B" stroke="#FBCB00" stroke-width="3"/>
<g filter="url(#filter1_i_44_2)">
<path d="M327.294 478H31.7059C26.3455 478 22 484.852 22 493.304L39.6471 590.696C39.6471 599.148 26.3455 606 31.7059 606H327.294C332.655 606 319.353 599.148 319.353 590.696L337 493.304C337 484.852 332.655 478 327.294 478Z" fill="#022AB4"/>
</g>
<path d="M327.294 478H31.7059C26.3455 478 22 484.852 22 493.304L39.6471 590.696C39.6471 599.148 26.3455 606 31.7059 606H327.294C332.655 606 319.353 599.148 319.353 590.696L337 493.304C337 484.852 332.655 478 327.294 478Z" stroke="url(#paint4_linear_44_2)" stroke-width="2"/>
<path d="M-209.349 622.362C-207.425 607.751 -184.082 596.208 -155.55 596.208C-150.01 596.208 -144.666 596.642 -139.634 597.453C-135.271 595.058 -130.262 593.696 -124.934 593.696C-120.283 593.696 -115.878 594.734 -111.93 596.589C-111.936 596.356 -111.949 596.118 -111.949 595.879C-111.949 580.181 -98.833 567.451 -82.6542 567.451C-69.5748 567.451 -58.5013 575.772 -54.7369 587.256C-45.1463 581.018 -33.7115 577.388 -21.4212 577.388C-19.1704 577.388 -16.9503 577.515 -14.762 577.754C-12.0516 562.549 1.22812 551 17.214 551C30.3882 551 41.723 558.844 46.8224 570.117C50.3261 568.41 54.2321 567.451 58.3543 567.451C73.4264 567.451 85.6446 580.181 85.6446 595.879C85.6446 597.406 85.5265 598.9 85.3049 600.358C85.4183 600.358 85.5307 600.352 85.6446 600.352C93.2764 600.352 100.38 602.594 106.349 606.442C111.565 603.59 117.549 601.963 123.913 601.963C141.255 601.963 155.773 614.015 159.582 630.19C168.88 630.243 176.396 635.76 176.396 642.56C176.396 642.851 176.377 643.143 176.349 643.434C206.641 648.209 226.426 656.085 226.426 664.999C226.426 679.563 173.554 691.377 108.334 691.377C86.4227 691.377 65.9103 690.041 48.3234 687.72C44.3273 695.802 36.0034 701.361 26.3773 701.361C18.8235 701.361 12.071 697.932 7.58205 692.558C-1.05135 697.206 -10.927 699.851 -21.4212 699.851C-40.5239 699.851 -57.5797 691.101 -68.8095 677.396C-84.4943 678.567 -101.374 679.203 -118.966 679.203C-201.825 679.203 -268.995 665.052 -268.995 647.595C-268.995 637.287 -245.58 628.134 -209.349 622.362Z" fill="#E9F6FC"/>
<path d="M-253.387 654.255C-239.22 668.487 -203.091 676.763 -161.567 673.681C-134.523 671.673 -110.456 665.236 -93.6682 656.529C-92.6951 665.9 -84.4375 672.86 -74.9795 672.158C-68.0299 671.642 -62.3339 667.133 -59.9646 661.042C-52.1658 675.216 -36.6151 684.318 -19.4369 683.043C-4.67193 681.947 7.76742 673.456 14.5459 661.479C21.0875 669.448 31.2745 674.235 42.3461 673.413C60.4112 672.072 73.9717 656.334 72.6307 638.269C72.6205 638.131 72.596 637.995 72.585 637.847C78.6686 648.316 90.3617 654.979 103.244 654.023C109.517 653.557 115.238 651.352 119.975 647.907C136.933 652.043 161.078 653.635 187.649 651.663C206.077 650.295 223.105 647.399 237.205 643.552C236.297 634.76 216.055 628.435 185.687 625.927C185.695 625.635 185.695 625.342 185.673 625.052C185.17 618.271 177.267 613.33 167.987 613.971C166.465 609.126 163.969 604.741 160.747 601.026C153.424 592.572 142.344 587.57 130.327 588.463C125.152 588.847 120.31 590.29 115.99 592.561C115.02 593.069 114.067 593.629 113.146 594.223C107.365 591.081 100.71 589.375 93.7102 589.602C93.155 589.612 92.6019 589.642 92.0422 589.684C91.9333 589.692 91.8174 589.706 91.708 589.714C91.8184 588.244 91.8241 586.745 91.7111 585.223C90.5489 569.568 77.4223 557.777 62.3963 558.893C60.8551 559.007 59.3602 559.251 57.9181 559.618C57.9181 559.618 57.9103 559.614 57.9038 559.619C55.4789 560.235 53.1949 561.175 51.0925 562.4C50.6278 561.552 50.1282 560.728 49.5941 559.933C43.3011 550.494 32.2601 544.634 20.1489 545.533C4.20639 546.716 -8.1841 559.216 -9.76239 574.581C-11.9609 574.51 -14.1805 574.542 -16.4267 574.709C-28.6833 575.618 -39.8206 580.086 -48.9187 587.011C-53.5269 575.842 -65.1854 568.364 -78.2273 569.332C-90.4691 570.241 -100.416 578.334 -103.986 589.031C-105.13 592.427 -105.619 596.083 -105.339 599.851C-105.321 600.094 -105.289 600.326 -105.265 600.558C-109.342 599.005 -113.81 598.29 -118.448 598.634C-123.762 599.029 -128.655 600.758 -132.833 603.465C-137.909 603.029 -143.269 602.996 -148.794 603.406C-177.247 605.518 -199.67 618.758 -200.508 633.467C-226.118 639.518 -245.022 646.821 -253.387 654.255Z" fill="#E9F6FC"/>
<path d="M138.289 608.36C149.354 625.118 183.127 640.39 224.438 645.599C251.343 648.991 276.209 647.451 294.389 642.244C293.486 651.622 300.2 660.081 309.61 661.267C316.524 662.139 323 658.847 326.53 653.347C331.365 668.785 344.803 680.789 361.893 682.944C376.582 684.796 390.458 678.938 399.476 668.542C404.308 677.65 413.344 684.361 424.359 685.75C442.332 688.016 458.742 675.277 461.008 657.305C461.025 657.168 461.028 657.029 461.047 656.882C464.935 668.35 475.076 677.197 487.892 678.813C494.133 679.6 500.177 678.573 505.503 676.135C521.305 683.549 544.656 689.896 571.09 693.229C589.424 695.54 606.689 696.077 621.271 695.1C622.123 686.303 603.536 676.091 574.268 667.615C574.333 667.329 574.391 667.043 574.428 666.754C575.278 660.007 568.511 653.599 559.289 652.388C558.758 647.337 557.179 642.544 554.758 638.265C549.255 628.527 539.387 621.429 527.432 619.921C522.282 619.272 517.251 619.728 512.567 621.097C511.514 621.403 510.47 621.762 509.449 622.163C504.405 617.937 498.221 614.946 491.315 613.781C490.769 613.681 490.221 613.601 489.664 613.531C489.555 613.517 489.439 613.508 489.33 613.494C489.73 612.075 490.032 610.607 490.223 609.093C492.187 593.518 481.657 579.359 466.708 577.475C465.175 577.281 463.662 577.224 462.175 577.299C462.175 577.299 462.169 577.292 462.161 577.297C459.662 577.42 457.237 577.889 454.934 578.672C454.646 577.749 454.32 576.842 453.954 575.958C449.656 565.459 439.996 557.526 427.947 556.007C412.086 554.007 397.464 563.804 392.872 578.55C390.731 578.045 388.549 577.637 386.314 577.355C374.121 575.818 362.319 577.989 352.029 582.973C349.726 571.113 339.78 561.472 326.805 559.837C314.626 558.301 303.272 564.263 297.654 574.04C295.859 577.142 294.655 580.628 294.183 584.377C294.152 584.619 294.138 584.852 294.115 585.084C290.427 582.755 286.189 581.168 281.575 580.587C276.288 579.92 271.149 580.645 266.518 582.47C261.629 581.037 256.381 579.942 250.885 579.249C222.578 575.681 197.976 584.213 194.239 598.464C167.938 599.32 147.962 602.731 138.289 608.36Z" fill="#E9F6FC"/>
<path d="M91 188H260" stroke="white" stroke-opacity="0.16" stroke-width="12" stroke-linecap="round"/>
<path opacity="0.1" d="M99 240H200" stroke="white" stroke-width="2"/>
<path opacity="0.1" d="M213 240H255.5" stroke="white" stroke-width="2"/>
<path d="M338.427 360L353.896 360C354.745 360 355.514 360.607 355.839 361.535C356.164 362.463 355.984 363.533 355.383 364.246L347.551 373.499L355.383 382.755C355.984 383.463 356.167 384.536 355.839 385.465C355.514 386.394 354.749 387 353.896 387L338.427 387C337.871 387 337.334 386.74 336.94 386.273L327.616 375.257C326.795 374.288 326.795 372.712 327.616 371.742L336.94 360.726C337.334 360.26 337.871 360 338.427 360Z" fill="#FBCB00"/>
<path d="M20.5729 387L5.10427 387C4.25455 387 3.48612 386.393 3.16101 385.465C2.8359 384.537 3.0157 383.467 3.61666 382.754L11.4488 373.501L3.61666 364.245C3.0157 363.537 2.83344 362.464 3.16102 361.535C3.48613 360.606 4.25086 360 5.10427 360L20.5729 360C21.1295 360 21.6664 360.26 22.0605 360.727L31.384 371.743C32.2054 372.712 32.2054 374.288 31.384 375.258L22.0605 386.274C21.6664 386.74 21.1295 387 20.5729 387Z" fill="#FBCB00"/>
</g>
<defs>
<filter id="filter0_i_44_2" x="39" y="77.5631" width="282.033" height="109.293" filterUnits="userSpaceOnUse" color-interpolation-filters="sRGB">
<feFlood flood-opacity="0" result="BackgroundImageFix"/>
<feBlend mode="normal" in="SourceGraphic" in2="BackgroundImageFix" result="shape"/>
<feColorMatrix in="SourceAlpha" type="matrix" values="0 0 0 0 0 0 0 0 0 0 0 0 0 0 0 0 0 0 127 0" result="hardAlpha"/>
<feOffset/>
<feGaussianBlur stdDeviation="27"/>
<feComposite in2="hardAlpha" operator="arithmetic" k2="-1" k3="1"/>
<feColorMatrix type="matrix" values="0 0 0 0 0.037655 0 0 0 0 0.1377 0 0 0 0 0.480713 0 0 0 1 0"/>
<feBlend mode="normal" in2="shape" result="effect1_innerShadow_44_2"/>
</filter>
<filter id="filter1_i_44_2" x="21" y="477" width="317" height="130" filterUnits="userSpaceOnUse" color-interpolation-filters="sRGB">
<feFlood flood-opacity="0" result="BackgroundImageFix"/>
<feBlend mode="normal" in="SourceGraphic" in2="BackgroundImageFix" result="shape"/>
<feColorMatrix in="SourceAlpha" type="matrix" values="0 0 0 0 0 0 0 0 0 0 0 0 0 0 0 0 0 0 127 0" result="hardAlpha"/>
<feOffset/>
<feGaussianBlur stdDeviation="27"/>
<feComposite in2="hardAlpha" operator="arithmetic" k2="-1" k3="1"/>
<feColorMatrix type="matrix" values="0 0 0 0 0.037655 0 0 0 0 0.1377 0 0 0 0 0.480713 0 0 0 1 0"/>
<feBlend mode="normal" in2="shape" result="effect1_innerShadow_44_2"/>
</filter>
<linearGradient id="paint0_linear_44_2" x1="179" y1="477" x2="179" y2="387" gradientUnits="userSpaceOnUse">
<stop offset="0.25" stop-color="#00239B"/>
<stop offset="1" stop-color="white" stop-opacity="0"/>
</linearGradient>
<linearGradient id="paint1_linear_44_2" x1="179" y1="250" x2="179" y2="335" gradientUnits="userSpaceOnUse">
<stop offset="0.25" stop-color="#00239B"/>
<stop offset="1" stop-color="white" stop-opacity="0"/>
</linearGradient>
<linearGradient id="paint2_linear_44_2" x1="15" y1="490.5" x2="219" y2="490.5" gradientUnits="userSpaceOnUse">
<stop stop-color="#022AB4"/>
<stop offset="0.504808" stop-color="white"/>
<stop offset="1" stop-color="#022AB4"/>
</linearGradient>
<linearGradient id="paint3_linear_44_2" x1="329" y1="490.5" x2="533" y2="490.5" gradientUnits="userSpaceOnUse">
<stop stop-color="#022AB4"/>
<stop offset="0.504808" stop-color="white"/>
<stop offset="1" stop-color="#022AB4"/>
</linearGradient>
<linearGradient id="paint4_linear_44_2" x1="179.5" y1="478" x2="179.5" y2="533.5" gradientUnits="userSpaceOnUse">
<stop stop-color="white"/>
<stop offset="1" stop-color="#0329AE"/>
</linearGradient>
<clipPath id="clip0_44_2">
<rect width="356" height="617" fill="white"/>
</clipPath>
</defs>
</svg>
