<svg width="287" height="139" viewBox="0 0 287 139" fill="none" xmlns="http://www.w3.org/2000/svg">
<path d="M34.634 46.6214C37.289 39.5996 43.675 34.6428 51.1406 33.8558C122.053 26.3799 166.27 26.3079 235.908 33.8263C243.349 34.6296 249.704 39.5805 252.351 46.5812L276.763 111.145C281.71 124.228 272.043 138.218 258.056 138.218H28.9442C14.9569 138.218 5.28989 124.228 10.2369 111.145L34.634 46.6214Z" fill="#809BB1"/>
<path d="M41.3684 26.885C43.9085 19.7175 50.3097 14.5961 57.8668 13.7511C123.473 6.41455 164.753 6.34363 229.185 13.7198C236.716 14.582 243.084 19.6967 245.616 26.8414L268.544 91.5373C273.157 104.554 263.503 118.218 249.693 118.218H37.3068C23.4968 118.218 13.8425 104.554 18.4557 91.5373L41.3684 26.885Z" fill="#B6CDDF"/>
<path d="M75.3027 6.66602C127.174 0.480434 160.791 0.419343 211.757 6.63379C220.171 7.65986 227.181 13.5192 229.801 21.5547L247.357 75.3975C251.994 89.6164 241.397 104.218 226.441 104.218H60.5586C45.6028 104.218 35.006 89.6164 39.6426 75.3975L57.1836 21.6025C59.8129 13.5394 66.8586 7.67299 75.3027 6.66602Z" fill="#D40C7E" stroke="white" stroke-width="4"/>
<mask id="path-4-outside-1_44_87" maskUnits="userSpaceOnUse" x="42.418" y="2.22034" width="202" height="76" fill="black">
<rect fill="white" x="42.418" y="2.22034" width="202" height="76"/>
<path d="M116.89 4.82563C135.483 4.02099 152.67 4.01714 171.119 4.8227C183.714 5.57287 196.896 6.83609 211.515 8.6186C219.145 9.54904 225.515 14.8658 227.898 22.1743L241.581 64.1362C238.573 71.0674 231.723 76.2182 223.214 76.2182H63.7861C55.2767 76.2182 48.4261 71.0676 45.418 64.1362L59.085 22.2231C61.4763 14.8896 67.8808 9.56516 75.54 8.6518C90.5749 6.85891 104.067 5.58264 116.89 4.82563Z"/>
</mask>
<path d="M116.89 4.82563C135.483 4.02099 152.67 4.01714 171.119 4.8227C183.714 5.57287 196.896 6.83609 211.515 8.6186C219.145 9.54904 225.515 14.8658 227.898 22.1743L241.581 64.1362C238.573 71.0674 231.723 76.2182 223.214 76.2182H63.7861C55.2767 76.2182 48.4261 71.0676 45.418 64.1362L59.085 22.2231C61.4763 14.8896 67.8808 9.56516 75.54 8.6518C90.5749 6.85891 104.067 5.58264 116.89 4.82563Z" fill="#FC2CA3"/>
<path d="M116.89 4.82563L116.803 2.8275L116.787 2.82818L116.772 2.8291L116.89 4.82563ZM171.119 4.8227L171.238 2.82624L171.222 2.82529L171.206 2.8246L171.119 4.8227ZM211.515 8.6186L211.757 6.6333L211.515 8.6186ZM227.898 22.1743L229.8 21.5542L229.8 21.5542L227.898 22.1743ZM241.581 64.1362L243.416 64.9324L243.718 64.237L243.483 63.5162L241.581 64.1362ZM45.418 64.1362L43.5165 63.5161L43.2815 64.2369L43.5833 64.9324L45.418 64.1362ZM59.085 22.2231L57.1835 21.603L57.1835 21.6031L59.085 22.2231ZM75.54 8.6518L75.3032 6.66587V6.66587L75.54 8.6518ZM116.89 4.82563L116.976 6.82376C135.512 6.02159 152.641 6.0178 171.032 6.82079L171.119 4.8227L171.206 2.8246C152.699 2.01648 135.453 2.02039 116.803 2.8275L116.89 4.82563ZM171.119 4.8227L171 6.81916C183.544 7.56632 196.684 8.8251 211.273 10.6039L211.515 8.6186L211.757 6.6333C197.108 4.84708 183.883 3.57942 171.238 2.82624L171.119 4.8227ZM211.515 8.6186L211.273 10.6039C218.119 11.4388 223.851 16.2127 225.997 22.7943L227.898 22.1743L229.8 21.5542C227.18 13.519 220.171 7.65932 211.757 6.6333L211.515 8.6186ZM227.898 22.1743L225.997 22.7943L239.68 64.7562L241.581 64.1362L243.483 63.5162L229.8 21.5542L227.898 22.1743ZM241.581 64.1362L239.746 63.3399C237.031 69.5962 230.867 74.2182 223.214 74.2182V76.2182V78.2182C232.579 78.2182 240.115 72.5387 243.416 64.9324L241.581 64.1362ZM223.214 76.2182V74.2182H63.7861V76.2182V78.2182H223.214V76.2182ZM63.7861 76.2182V74.2182C56.1325 74.2182 49.9678 69.5962 47.2526 63.3399L45.418 64.1362L43.5833 64.9324C46.8845 72.539 54.4209 78.2182 63.7861 78.2182V76.2182ZM45.418 64.1362L47.3194 64.7562L60.9864 22.8431L59.085 22.2231L57.1835 21.6031L43.5165 63.5161L45.418 64.1362ZM59.085 22.2231L60.9864 22.8431C63.1398 16.2394 68.9025 11.4575 75.7769 10.6377L75.54 8.6518L75.3032 6.66587C66.8591 7.67283 59.8128 13.5398 57.1835 21.603L59.085 22.2231ZM75.54 8.6518L75.7769 10.6377C90.7833 8.84822 104.234 7.57624 117.008 6.82215L116.89 4.82563L116.772 2.8291C103.899 3.58904 90.3665 4.86959 75.3032 6.66587L75.54 8.6518Z" fill="white" mask="url(#path-4-outside-1_44_87)"/>
<path d="M179.731 16.8018H186.3V63.4955H179.731L166.66 32.3858V63.4955H160.092V16.8018H166.66L179.731 47.8531V16.8018Z" fill="white"/>
<path d="M150.214 16.8018H156.782V63.4955H150.214V16.8018Z" fill="white"/>
<path d="M132.253 16.8018C144.471 16.8018 146.901 20.7124 146.901 30.1095V33.6699C146.901 42.9503 144.471 46.8025 132.253 46.9776H130.611V63.4955H124.043V16.8018H132.253ZM132.253 41.1409C139.347 41.1409 140.333 39.5066 140.333 33.6699V30.1095C140.333 24.2144 139.347 22.6385 132.253 22.6385H130.611V41.1409H132.253Z" fill="white"/>
<path d="M111.071 36.4132C116.654 40.207 120.727 43.4756 120.727 51.9388C120.727 59.6433 117.574 64.0792 109.889 64.0792C101.35 64.0792 98 60.1686 98 47.5613H104.568C104.568 56.4915 106.013 58.2425 109.889 58.2425C112.976 58.2425 114.158 56.8417 114.158 51.9388C114.158 46.8609 112.319 44.9348 107.459 41.5495C102.795 38.3393 98.3284 35.1291 98.3284 27.483C98.3284 20.5957 101.613 16.2181 109.232 16.2181C116.851 16.2181 120.398 20.5957 120.398 30.4014H113.83C113.83 23.3973 112.056 22.0549 109.232 22.0549C106.408 22.0549 104.897 23.3973 104.897 27.483C104.897 31.7438 107.196 33.7867 111.071 36.4132Z" fill="white"/>
</svg>
