<svg width="287" height="145" viewBox="0 0 287 145" fill="none" xmlns="http://www.w3.org/2000/svg">
<path d="M75.3028 4.66619C127.174 -1.51939 160.791 -1.58048 211.757 4.63396C220.171 5.66003 227.181 11.5194 229.801 19.5549L247.357 73.3977C251.994 87.6166 241.397 102.218 226.441 102.218H60.5588C45.603 102.218 35.0062 87.6166 39.6428 73.3977L57.1838 19.6027C59.8131 11.5396 66.8587 5.67316 75.3028 4.66619Z" fill="#D40C7E"/>
<path d="M117.591 3.58862C135.694 2.80631 152.429 2.80256 170.393 3.58577C182.656 4.31512 195.491 5.54329 209.725 7.27634C217.155 8.18096 223.357 13.3502 225.677 20.4559L239 61.2534C236.071 67.9922 229.401 73.0001 221.116 73.0001H65.8847C57.5992 73.0001 50.9289 67.9924 48 61.2534L61.3073 20.5033C63.6356 13.3733 69.8716 8.19663 77.3292 7.30862C91.9684 5.56548 105.105 4.32462 117.591 3.58862Z" fill="#FC2CA3"/>
<path d="M179.731 14.802H186.3V61.4957H179.731L166.66 30.386V61.4957H160.092V14.802H166.66L179.731 45.8533V14.802Z" fill="white"/>
<path d="M150.214 14.802H156.782V61.4957H150.214V14.802Z" fill="white"/>
<path d="M132.253 14.802C144.471 14.802 146.901 18.7126 146.901 28.1097V31.6701C146.901 40.9505 144.471 44.8027 132.253 44.9778H130.611V61.4957H124.043V14.802H132.253ZM132.253 39.1411C139.347 39.1411 140.333 37.5068 140.333 31.6701V28.1097C140.333 22.2146 139.347 20.6387 132.253 20.6387H130.611V39.1411H132.253Z" fill="white"/>
<path d="M111.071 34.4134C116.654 38.2072 120.727 41.4758 120.727 49.939C120.727 57.6435 117.574 62.0794 109.889 62.0794C101.35 62.0794 98 58.1688 98 45.5615H104.568C104.568 54.4917 106.013 56.2427 109.889 56.2427C112.976 56.2427 114.158 54.8419 114.158 49.939C114.158 44.8611 112.319 42.935 107.459 39.5497C102.795 36.3395 98.3284 33.1293 98.3284 25.4832C98.3284 18.5959 101.613 14.2183 109.232 14.2183C116.851 14.2183 120.398 18.5959 120.398 28.4016H113.83C113.83 21.3975 112.056 20.0551 109.232 20.0551C106.408 20.0551 104.897 21.3975 104.897 25.4832C104.897 29.744 107.196 31.7869 111.071 34.4134Z" fill="white"/>
</svg>
