<svg width="287" height="139" viewBox="0 0 287 139" fill="none" xmlns="http://www.w3.org/2000/svg">
<path d="M34.634 46.6214C37.289 39.5996 43.675 34.6428 51.1406 33.8558C122.053 26.3799 166.27 26.3079 235.908 33.8263C243.349 34.6296 249.704 39.5805 252.351 46.5812L276.763 111.145C281.71 124.228 272.043 138.218 258.056 138.218H28.9442C14.9569 138.218 5.28989 124.228 10.2369 111.145L34.634 46.6214Z" fill="#809BB1"/>
<path d="M41.3684 26.885C43.9085 19.7175 50.3097 14.5961 57.8668 13.7511C123.473 6.41455 164.753 6.34363 229.185 13.7198C236.716 14.582 243.084 19.6967 245.616 26.8414L268.544 91.5373C273.157 104.554 263.503 118.218 249.693 118.218H37.3068C23.4968 118.218 13.8425 104.554 18.4557 91.5373L41.3684 26.885Z" fill="#B6CDDF"/>
</svg>
