<svg width="210" height="103" viewBox="0 0 210 103" fill="none" xmlns="http://www.w3.org/2000/svg">
<path d="M36.7604 4.66619C88.6317 -1.51939 122.249 -1.58048 173.215 4.63396C181.629 5.66003 188.639 11.5194 191.259 19.5549L208.815 73.3977C213.452 87.6166 202.855 102.218 187.899 102.218H22.0163C7.06048 102.218 -3.53633 87.6166 1.10027 73.3977L18.6413 19.6027C21.2706 11.5396 28.3163 5.67316 36.7604 4.66619Z" fill="#D40C7E"/>
<path d="M79.0484 3.58867C97.152 2.80636 113.887 2.80262 131.85 3.58582C144.114 4.31518 156.949 5.54334 171.183 7.27639C178.612 8.18101 184.814 13.3502 187.135 20.4559L200.458 61.2534C197.529 67.9923 190.859 73.0002 182.574 73.0002H27.3422C19.0567 73.0002 12.3864 67.9925 9.45752 61.2534L22.7648 20.5034C25.0932 13.3734 31.3291 8.19669 38.7867 7.30867C53.4259 5.56553 66.5629 4.32468 79.0484 3.58867Z" fill="#FC2CA3"/>
<path d="M141.188 14.802H147.757V61.4957H141.188L128.117 30.386V61.4957H121.549V14.802H128.117L141.188 45.8533V14.802Z" fill="white"/>
<path d="M111.671 14.802H118.239V61.4957H111.671V14.802Z" fill="white"/>
<path d="M93.7105 14.802C105.928 14.802 108.358 18.7126 108.358 28.1097V31.6701C108.358 40.9505 105.928 44.8027 93.7105 44.9778H92.0685V61.4957H85.5005V14.802H93.7105ZM93.7105 39.1411C100.804 39.1411 101.79 37.5068 101.79 31.6701V28.1097C101.79 22.2146 100.804 20.6387 93.7105 20.6387H92.0685V39.1411H93.7105Z" fill="white"/>
<path d="M72.5285 34.4134C78.1115 38.2072 82.1845 41.4758 82.1845 49.939C82.1845 57.6435 79.0315 62.0794 71.3465 62.0794C62.8075 62.0794 59.4575 58.1688 59.4575 45.5615H66.0255C66.0255 54.4917 67.4705 56.2427 71.3465 56.2427C74.4335 56.2427 75.6155 54.8419 75.6155 49.939C75.6155 44.8611 73.7765 42.935 68.9165 39.5497C64.2525 36.3395 59.7859 33.1293 59.7859 25.4832C59.7859 18.5959 63.0705 14.2183 70.6895 14.2183C78.3085 14.2183 81.8555 18.5959 81.8555 28.4016H75.2875C75.2875 21.3975 73.5135 20.0551 70.6895 20.0551C67.8655 20.0551 66.3545 21.3975 66.3545 25.4832C66.3545 29.744 68.6535 31.7869 72.5285 34.4134Z" fill="white"/>
<line x1="43.4575" y1="75.0002" x2="164.458" y2="75.0002" stroke="url(#paint0_linear_44_280)" stroke-width="4"/>
<defs>
<linearGradient id="paint0_linear_44_280" x1="43.4575" y1="77.5002" x2="164.458" y2="77.5002" gradientUnits="userSpaceOnUse">
<stop stop-color="white" stop-opacity="0"/>
<stop offset="0.538462" stop-color="white"/>
<stop offset="1" stop-color="white" stop-opacity="0"/>
</linearGradient>
</defs>
</svg>
